<svg xmlns="http://www.w3.org/2000/svg" xmlns:xlink="http://www.w3.org/1999/xlink" version="1.1"  x="0" y="0" width="100%" height="100%" viewBox="0 0 2560 1440"  >
    <defs />
    <style>
        .st0 {
            fill: #fff
        }

        .st5 {
            opacity: .498;
            fill: #383838;
            stroke: #fdec0e;
            stroke-miterlimit: 10
        }

        .st81 {
            fill: #eecf72
        }

        .st82 {
            font-family: 'Raleway-Regular'
        }

        .st83 {
            font-size: 13.6966px
        }

        .st86 {
            font-size: 12px
        }
    </style>
    <path d="M2 1h1920v1080H2z" class="st0" />
    <defs>
        <path id="SVGID_73_" d="M1 0h2047v1081H1z" />
    </defs>
    <clipPath id="SVGID_2_">
        <use overflow="visible" xlink:href="#SVGID_73_" />
    </clipPath>
    <path fill="#000525" d="M233 114h1776v968H233z" clip-path="url(#SVGID_2_)" />
    <path fill="#0b0b0b" d="M233 42h1776v73H233z" clip-path="url(#SVGID_2_)" />
    <path d="M0 0h2047v42H0z" clip-path="url(#SVGID_2_)" />
    <defs>
        <path id="SVGID_75_" d="M233 116h1653v930H233z" />
    </defs>
    <clipPath id="SVGID_4_">
        <use overflow="visible" xlink:href="#SVGID_75_" />
    </clipPath>
    <path d="M1408 500l-6 9-14 21c-7 10-15 22-27 26 9-5 17-18 23-26 22-29 30-69 26-106-1-14-4-30-10-43-3 50-19 103-60 136l-22 13c25-15 40-38 48-52 12-29 20-59 17-92-3-34-34-82-51-86 17 25 25 57 23 85-7 40-14 98-63 125 43-32 52-99 52-129 0-5 0-40-21-72-15-25-43-38-70-46 14 13 24 27 37 45 9 16 33 63 16 134-10 40-31 61-55 71 24-15 43-41 48-72 4-23 7-67-5-100-6-16-16-28-22-38l-12-12c-14-13-32-22-51-28l-20-6c-8-1-16 0-9 3l9 6c36 30 59 68 68 112 5 22 8 39 6 59-3 27-4 60-52 80l-11 4h-9l-10-1-2-1c-18-12-27-27-27-48 4 4 8 8 10 14-3-19-9-40-25-53l37-2c-17-5-32-14-48-21 14-3 29-6 42-13-17-1-34-1-51-6-5-1-14-3-17-7l-3-2c8-9 15-22 2-30 2 19-8 23-25 22-22-1-49-4-70 7-4 3-12 7-13 13-16 6-34 14-39 32l59 1c15 1 32 1 47 7 34 14 19 57 3 79l-3 5-7 4c-41 5-74-4-103-45-4-7-9-14-11-21-2-6-5-16-7-30-1-8 0-32 2-41 4-24 25-80 73-115 2-2 13-8 13-11-5-2-9-2-21 1l-21 6c-25 9-42 25-62 51-16 29-42 83-3 158 15 27 35 44 55 53-24-7-48-23-64-54-39-75-7-147-7-146a450 450 0 0127-47l20-19c-29 7-57 25-73 51-25 38-19 84-19 84a180 180 0 0074 144c-17-7-31-18-43-34-36-49-37-97-38-118 0-15 1-27 3-43 2-15 7-30 12-47-23 28-43 55-47 91-3 36 6 68 23 99l-2-2c8 13 23 41 50 61-18-10-35-23-46-40-22-32-29-63-33-88l-5-45c-11 27-18 54-14 83 3 24 11 48 25 68 8 11 17 21 27 31-15-8-27-21-37-34l-19-37c-1 50 30 105 77 127 15 7 32 12 48 17-24 0-47-2-65-19 1 15 14 24 27 31 12 8 26 13 41 16 17 5 35 6 53 6 17 1 35-1 52 2 16 4 30 14 40 28-9 16-18 32-20 51-3 15-1 31 1 46l3 33c14-17 16-41 19-61 2 9 0 20-1 30 0 14 1 28 4 41 5 29 18 57 22 86v26c0 7-4 15-1 22 15-22 21-40 19-67s-7-51-12-77c-3-15-2-29-1-43-1 36 13 71 27 103 4-23 11-45 16-68 5-24 5-45-3-69 11 8 15 22 17 35 13-22 9-38 2-61-6-22-4-43 21-52 23-7 48-4 71-4 25 0 51-3 75-12 22-8 36-23 47-42-26 14-49 25-79 19 27-6 55-12 78-29 22-17 40-41 50-67 4-13 6-27 7-40-3 1-5 4-7 7z" clip-path="url(#SVGID_4_)" />
    <path d="M1130 598h851l2 1 1 2v465l-1 2-2 1h-851l-3-1-1-2V601l1-2 3-1z" class="st5" />
    <path d="M1996 1h104v1080h-104zM1 42h232v1039H1z" /><text class="st81 st82 st83" transform="translate(247 109)"> J </text><text class="st81 st82 st83" transform="translate(254 109)"> A </text><text class="st81 st82 st83" transform="translate(263 109)"> S </text><text class="st81 st82 st83" transform="translate(271 109)"> O </text><text class="st81 st82 st83" transform="translate(281 109)"> N </text><text class="st81 st82 st83" transform="translate(292 109)" /><text class="st81 st82 st83" transform="translate(296 109)"> A </text><text class="st81 st82 st83" transform="translate(305 109)"> L </text><text class="st81 st82 st83" transform="translate(313 109)"> E </text><text class="st81 st82 st83" transform="translate(321 109)"> X </text><text class="st81 st82 st83" transform="translate(330 109)"> A </text><text class="st81 st82 st83" transform="translate(339 109)"> N </text><text class="st81 st82 st83" transform="translate(350 109)"> D </text><text class="st81 st82 st83" transform="translate(359 109)"> E </text><text class="st81 st82 st83" transform="translate(368 109)"> R </text><text class="st81 st82 st83" transform="translate(377 109)" /><text class="st81 st82 st83" transform="translate(380 109)"> C </text><text class="st81 st82 st83" transform="translate(390 109)"> H </text><text class="st81 st82 st83" transform="translate(400 109)"> A </text><text class="st81 st82 st83" transform="translate(409 109)"> S </text><text class="st81 st82 st83" transform="translate(417 109)"> E </text><text class="st81 st82 st83" transform="translate(426 109)" /><text fill="#8d7b43" class="st82 st83" transform="translate(429 109)"> | </text><text fill="#0040fb" class="st82 st83" transform="translate(432 109)" /><text class="st0 st82 st83" transform="translate(436 109)"> U </text><text class="st0 st82 st83" transform="translate(446 109)"> R </text><text class="st0 st82 st83" transform="translate(455 109)"> I </text><text class="st0 st82 st83" transform="translate(458 109)" /><text class="st0 st82 st83" transform="translate(462 109)"> D </text><text class="st0 st82 st83" transform="translate(472 109)"> A </text><text class="st0 st82 st83" transform="translate(481 109)"> T </text><text class="st0 st82 st83" transform="translate(489 109)"> A </text><text class="st0 st82 st83" transform="translate(499 109)"> / </text><text class="st0 st82 st83" transform="translate(507 109)"> I </text><text class="st0 st82 st83" transform="translate(510 109)"> M </text><text class="st0 st82 st83" transform="translate(522 109)"> A </text><text class="st0 st82 st83" transform="translate(532 109)"> G </text><text class="st0 st82 st83" transform="translate(541 109)"> E </text><text class="st0 st82 st83" transform="translate(550 109)" /><text class="st0 st82 st83" transform="translate(553 109)"> S </text><text class="st0 st82 st83" transform="translate(562 109)"> V </text><text class="st0 st82 st83" transform="translate(571 109)"> G </text><text class="st0 st82 st83" transform="translate(581 109)"> / </text><text class="st0 st82 st83" transform="translate(589 109)"> X </text><text class="st0 st82 st83" transform="translate(598 109)"> M </text><text class="st0 st82 st83" transform="translate(610 109)"> L </text><text class="st0 st82 st83" transform="translate(618 109)" /><text class="st0 st82 st83" transform="translate(621 109)"> U </text><text class="st0 st82 st83" transform="translate(631 109)"> T </text><text class="st0 st82 st83" transform="translate(640 109)"> F </text><text class="st0 st82 st83" transform="translate(648 109)"> - </text><text class="st0 st82 st83" transform="translate(654 109)"> 8 </text><text class="st0 st82 st83" transform="translate(662 109)" /><text class="st0 st82 st83" transform="translate(665 109)"> D </text><text class="st0 st82 st83" transform="translate(675 109)"> A </text><text class="st0 st82 st83" transform="translate(684 109)"> S </text><text class="st0 st82 st83" transform="translate(693 109)"> H </text><text class="st0 st82 st83" transform="translate(703 109)"> B </text><text class="st0 st82 st83" transform="translate(712 109)"> O </text><text class="st0 st82 st83" transform="translate(722 109)"> A </text><text class="st0 st82 st83" transform="translate(731 109)"> R </text><text class="st0 st82 st83" transform="translate(740 109)"> D </text>
    <g><text class="st0 st82 st86" transform="translate(77 337)"> Lorem ipsum </text></g>
    <path fill="#fff" fill-rule="evenodd" d="M37 69v-2l1 1-1 1zm-14-2l-1 2-1 2-1 1-1 1v2h-1l-2 1-1-2c0-3 2-5 5-7h3zm39 2l2-3h-3-1l2 3zm139-3l-3 1-1-1h4zm1 0l-3 1 2 2 2-1 1-2h-2zM99 66l-2 1-1 2 2-1 1-2zm120 0l1-1-1 1-1 2 1-2zm-79 0l1-1v1l-2 2 1-2zm-37 0l1-1v1l-2 2 1-2zm-27-1l-1 1-1 2 1-2 1-1zm13 2l1-1-1 1zm71 2l-2 1 1-2 4-3-3 4zm58-3h-1l-2 2-1 1v-2l1-1-2 1-2 1 1-1v-1h0l-2 1-2 1 1-1 1-1h-1l-1 1v2h-1v1h1v-1h1l3-2-1 1-1 1 2-1 2-1-1 1v2l4-3 1-1zm5 0l-3 3h-2l-1-1v-1l1-1 2-1h1l-3 3v1l2-1 3-2zM38 66l-2 2 1-1v-1h1zm0 0v-1-1l1 1v2l-1-1zm4 1v-1 1zm-8 0h-1l1-1v1zm3-1v1l-3 2v-1l1-1v-1-1l-1 1-1 1-2 1-2 1v-1l1-1h-1l-1 1h-1l1-2 2-1h1l-1 1v1l1-1 1-1h-3l-2 2-1 2h2v-1 1l1 1 2-2 3-1-1 1v1h-1v1h1l2-1 1-1v2l2-1 1-1 3-1 1-1-1 2-1 1h1l1-1h1l2-2v1l-1 1v1l5-3-3 2-1 1v-1l1-1 1-2h-1l-2 2-3 1 1-1 2-2h-1-1l-1 1v1h-3l1-2v-1h-2l-1 1v1zm19-1l-2-1h1l3 1h-2zm150-2l-4 2h2l2-2zM21 66l2 1 2-4-4 3zm171-3l4 2-3-2h-1zm-11 3l-1 1v-1h1zm7-5h3v-1h-4-2-1l-4 1h-1l1 1h1v-1h3l-1 1-1 2-2 2-1 1-2 1-1 1-1-1h1v-1l-2 1h-1l2-2 2-1v1h-1 2v-1h-3l-2 2-1 2h2l1-1v1l2-1 2-1v2l2-1h1v1h1l1-1v1h1l2-1 3-2-1 1-2 1-2 1v-1-1h0l-2 1v0l1-2 2-1v2c0 1 0 0 0 0l1-1v-1h-3l-1 2v-1h1v1h-1l-1 1v-1h1l-2 1-1 1v-1l1-2 2-3 2-2h-1 4zM76 59l-2 2-4 5 4-4 3-3h-1zm-3 8l1-1-1 1zm57-1l-2 2 1-1 1-1zm5 1l1-1h-1v1zm-5-1a25 25 0 01-4 3v-1-1l1-1v-1l-2 1-1 2h-1l1-1 1-2a66 66 0 003-5l2-2c1-1 0 0 0 0h-1c-1 0 0 0 0 0l-7 11 3-2 1-1v1l-1 2v1l3-2h1l-1 1h2v-1 1c0 1 0 0 0 0l1 1 2-1 3-2v1l-1 1h-1v1h1l2-1 2-2-1 2 1 1 3-1 3-3-1 1-3 2h-1-1v-1l3-2v-1l-2 1-1 1 1-1-1 1-3 2v-1-1l1-1v-1h-1l-1 2-2 1-2 1v-1h1v-1h-1l-1 1-1 1v-1l1-1 2-2 1 1-1 1 1-1 1-1h-1l-2 1h-1zm-23 1v-1h1l-1 1zm-5 0v-1h1l-1 1zm-23-1zm19 0l-3 2 1-1-2 1-1 1 1-2 1-2-3 2-2 1 1-1 1-2h-1l-2 2-2 1-2 1v-1-1h0l-1 1h-1l1-2 2-1h1l-1 1v1l1-1 1-1h-3l-1 1-2 2 1-1 1-1-3 2-1 1-1-1v-1l3-2h1-1l-2 1v-1h-1v1h-1c-1 1-1 2-3 2l-1 1-1-1 3-3-2 1h-1l-3 2-1 1v-1-2l5-4 3-4h-1l-3 2-4 5-1 4 1 1 2-1 2-2-1 2 1 1 3-1 3-3-1 1-1 2h-1 1l1-1v1l1 1 3-2v1h1l1-1v1c0 1 0 0 0 0v1l3-1 3-3-1 2-1 1h1c1 0 0 0 0 0l1-1h1l2-2v1l-1 1v1l3-1-1 1h1l3-1v1l4-2-1 2h3l4-3h1l-1 1-1 1v1l2-1 3-2h-1l-2 2-1 1v-1-1l1-1v-1-1h-1v1l-1 2-3 2h-1l-1-1 3-3-3 1-2 2h-1l1-3 2-3 3-4v-1l-1 1-5 7-3 2 1-1h1zM31 56l1 1-1 2-4 2 4-5zm-8 3l-3 3v4l6-4 4-6-4 1-3 2zm103-3l-3 2-4 3 3-1 3-2 1-2c1 0 0 0 0 0zm-60 1l2-1-1 4-3 5h-2-2l3-4 3-4zm144 0l3-1-2 2-4 3 3-4zm-93 5h-2v1l2-1-3 6c0 2 1 2 2 2h2l2-1 2-1-3 1-2 1-2-2 1-3 3-3a31 31 0 007-4l2-2h-1l-5 1-5 5zm-52 3h4v1h-1-3l-3 4-1-1-2-3v1c-2 2-4 2-7 2h-2 2l6-2 1-1-3-1-3-1 1-1h1l4 2 4-5 2-2 3-3 1 1-1 4-3 5zm106 0l3-5 1-3-1-2-3 2-2 3-1 3c0 1 1 2 3 2zm26 1l1 1a18 18 0 01-6 2v1h1l5-2 3 2 2-1 2-3 4-1h-4l2-2 5-4 1-3v-1l-4 3-1 2-2 2-5 3h-4l-4-2h-1v1l5 2zm-28 2l-2 1-1-1 1-3-1-1h-1l3-5 3-3 1-1h-1l-2 2-2 2-2 2-2 3-4 4-2 3h1l3-2 1-2 2-3h1l1 2v2l1 2 2-2c1 0 2-1 2-3l3-1 3-1v-1h-1l-1 1-3 2 3-5 1-4-1-1-3 1-2 2-2 3-1 3 1 1 2 1h1l-2 2zM32 57l-1 2-4 3-3 5 3-2h1l-1 1h-1l-2 1-4 7-3 2-1 1-1-1-1-2c0-2 2-5 5-8v-2l1-2 2-3 4-2 4-1 2-2h1v1h-1l-1 1h1v1zm123-5v1l-3 8a83 83 0 01-4 10h-1a83 83 0 007-19h1z" clip-rule="evenodd" />
    <path fill="#eecf72" fill-rule="evenodd" d="M139 75h-1 1zm-7 0h0zm-4 0h-1 1zm-58 0zm95-1zm-20 0h-1 1zm-9 1v-1h-1v1h1zm-20 0h1v-1h-1v1zm-21 0h1v-1h-1v1zm54 0l1-2v1h-1zm-85-2l-1 1h1v-1zm78 2h-2v1h2l1-1h-1v-1h-1 2l-1-1h-1v2h1zm-40 0l-1-1v-1h1l1 1h-2 1l1 1-1 1h-1-1v-1h2zm-17 0h-1l-1-1 1-1h1v1h-1 1v2h-2v-1h2zm76 1v-3h-1v3h1zm-49-3l-1 3h-1l1-3h1zm-7 3h1v-3h-1v2h-1l1-2h-1v3h1zm-26 0l1-3h-1v3zm-4-1v-2h-1v3h-1v1h1l1-1 1-3h-1v2zm64 1h1v-2-1h-1-1v1h1-1v2l1-1v1zm-6 0h1v-2l-1-1h-1v1h1-1l-1 1 1 1 1-1v1zm-4 0h-1-1v-1-1h1-1v-1h2v3zm-58 0h-2v-1-1h1-1 1v-1h1v3zm97-1h1l-1 1-1-1s-1 0 0 0v-1a1 1 0 010-1h2v1h-1-1v1h1zm-3 1h-1v-1-1-1h2v2h-1 1l-1 1zm-10-1v-1h1v-1h-1-1v2l1 1 1-1h-1zm-10 1h-1v-1l-1-1 1-1h1l1 1v1h-2 2l-1 1zm-30-2v2h1v-1 1h-1v1h1l1-1 1-3h-1-1l-1 1zm-3-1h2v3h-1l1-2h-1l-1 2v-3zm-13 0h-1l-1 3h1v-2h1v2h1v-2-1h-1-1 1zm-3 0h-1v3h1l1-1v-1l-1-1zm-14 2h-1v-1h2l-1-1h-1l-1 1v1l1 1h1v-1zm-15-2h-1v3h1v-2h1l-1 2h1v-2-1h-1zm87 0l-1 1v2h-1v-3h2zm-30 0h1v2h-1v-2zm47 0h-1l-1 1h1v2h1v-3zm-8 0h-1l-1 1h1v2h1v-3zm-33 0h1v3h-1v-3zm-20 0h-2v1h1l-1 1 1 1 1-1h-1v-1h1v-1h-1 1zm-33 0h1v3h-1v-3zm73 3v-1h-1v1h-1l2-4 1 4h-1zm-86-1v1h1v-4h-1l-2 4h1v-1h1zm60 1h-1v-4h2l1 1v2l-1 1h-1zm-4 1l1-5-1 5zm-32 0l1-5h-1v5zm5-2h1l-1 1h-1l-1-1v-1-1l1-1h2v1h-1l-1 1v1h1zm67-2v-1h1v1h-1zm-49-1v0zm-32 1v-1h1v1h-1zm79-1h-1l-1 4h1l1-2v2h1v-2-1h-1v-1zm-21 3v-1-1h-1v-1h-1l-1 4h2l1-1zm-29-3l-1 4v-4h1zm-35 0v4h-1l1-4z" clip-rule="evenodd" />
    <path fill="none" fill-rule="evenodd" d="M2 1h1920v1080H2z" clip-rule="evenodd" />
    <g><text class="st0 st82 st86" transform="translate(77 520)"> Lorem ipsum </text></g>
    <g><text class="st0 st82 st86" transform="translate(77 429)"> Lorem ipsum </text></g>
    <g><text class="st0 st82 st86" transform="translate(77 383)"> Lorem ipsum </text></g>
    <g><text class="st0 st82 st86" transform="translate(77 612)"> Lorem ipsum </text></g>
    <g><text class="st0 st82 st86" transform="translate(77 704)"> Lorem ipsum </text></g>
    <g><text class="st0 st82 st86" transform="translate(77 566)"> Lorem ipsum </text></g>
    <g><text class="st0 st82 st86" transform="translate(77 475)"> Lorem ipsum </text></g>
    <g><text class="st0 st82 st86" transform="translate(77 796)"> Lorem ipsum </text></g>
    <g><text class="st0 st82 st86" transform="translate(77 658)"> Lorem ipsum </text></g>
    <g><text class="st0 st82 st86" transform="translate(77 750)"> Lorem ipsum </text></g>
    <g><text class="st0 st82 st86" transform="translate(77 842)"> Lorem ipsum </text></g>
    <g><text class="st0 st82 st86" transform="translate(77 888)"> Lorem ipsum </text></g>
    <g><text class="st0 st82 st86" transform="translate(77 934)"> Lorem ipsum </text></g>
    <g><text class="st81 st82 st86" transform="translate(106 222)"> Lorem ipsum </text></g>
    <g><text class="st81 st82 st86" transform="translate(106 257)"> Lorem ipsum </text></g>
    <g><text class="st81 st82 st86" transform="translate(106 291)"> Lorem ipsum </text></g>
    <g><text class="st81 st82 st86" transform="translate(77 189)"> Lorem ipsum </text></g>
    <path d="M255 598h849l2 1 1 2v465l-1 2-2 1H255l-2-1-1-2V601l1-2 2-1zM259 126h1719l5 1 1 2v449l-1 2-5 1H259l-5-1-2-2V129l2-2 5-1z" class="st5" />
</svg>