<?xml version="1.0" encoding="utf-8"?>
<svg width="615px" height="382px" viewBox="0 0 615 382" version="1.1" xmlns:xlink="http://www.w3.org/1999/xlink" xmlns="http://www.w3.org/2000/svg">
  <desc>Created with Lunacy</desc>
  <defs>
    <filter filterUnits="userSpaceOnUse" color-interpolation-filters="sRGB" id="filter_1">
      <feFlood flood-opacity="0" result="BackgroundImageFix" />
      <feColorMatrix in="SourceAlpha" type="matrix" values="0 0 0 0 0 0 0 0 0 0 0 0 0 0 0 0 0 0 127 0" />
      <feOffset dx="0" dy="2" />
      <feGaussianBlur stdDeviation="2" />
      <feColorMatrix type="matrix" values="0 0 0 0 0 0 0 0 0 0 0 0 0 0 0 0 0 0 1 0" />
      <feBlend mode="normal" in2="BackgroundImageFix" result="effect0_dropShadow" />
      <feBlend mode="normal" in="SourceGraphic" in2="effect0_dropShadow" result="shape" />
    </filter>
    <rect width="614.000061" height="381.999969" id="artboard_1" />
    <clipPath id="clip_1">
      <use xlink:href="#artboard_1" clip-rule="evenodd" />
    </clipPath>
  </defs>
  <path d="M611 379L0 0" transform="translate(1.000061 1)" id="Arrow-3" fill="none" stroke="#FAE800" stroke-width="2" />
  <path d="M0 379L611 0" transform="translate(1.000061 1)" id="Arrow" fill="none" stroke="#FAE800" stroke-width="2" />
  <path d="M611 0L0 379" transform="translate(1.000061 1)" id="Arrow-2" fill="none" stroke="#FAE800" stroke-width="2" />
  <g id="Artboard" clip-path="url(#clip_1)">
    <use xlink:href="#artboard_1" stroke="none" fill="#FFFFFF" fill-opacity="0" />
    <path d="M0 0L611 379" transform="translate(3.000061 3)" id="Arrow-4" fill="none" stroke="#FAE800" stroke-width="2" />
    <g filter="url(#filter_1)">
      <path d="M271.005 107.66C270.105 109.06 269.305 110.56 268.605 111.86C266.605 114.96 264.705 118.16 262.605 121.26C259.505 125.66 256.105 130.66 250.905 132.76C255.005 130.36 258.005 124.96 260.805 121.26C270.505 108.06 273.805 90.3598 272.405 74.3598C271.805 68.0598 270.405 61.3598 267.905 55.5598C266.805 77.6598 259.705 101.16 241.805 115.66C238.905 117.96 235.805 119.96 232.505 121.46C243.105 114.96 249.605 104.66 253.205 98.2598C258.505 85.3598 262.005 72.0598 260.505 57.8598C258.905 42.5598 245.905 21.3598 238.605 19.5598C245.905 30.8598 249.105 44.8598 248.405 57.2598C245.505 74.8598 242.305 100.76 220.905 112.46C239.805 98.3598 243.705 68.8598 243.505 55.1598L243.505 55.3598C243.505 53.1598 243.305 37.4598 234.405 23.1598C227.605 12.3598 215.705 6.75978 204.005 3.25978C210.105 8.65978 214.405 15.0598 219.905 23.0598C224.005 29.9598 234.005 51.0598 226.705 82.5598C222.605 100.16 213.705 109.66 203.105 114.06C213.605 107.26 221.905 95.7598 224.105 82.0598C225.805 71.6598 227.005 52.3598 221.905 37.6598C219.405 30.5598 215.305 24.9598 212.305 20.8598C210.905 18.9598 209.005 17.3598 207.305 15.6598C201.205 9.65978 193.605 5.85978 185.505 3.35978C182.505 2.45978 180.905 1.35978 176.705 0.659779C173.305 0.0597794 169.805 0.659779 172.505 2.05978C173.505 2.55978 175.505 4.15978 176.305 4.85978C191.705 17.9598 201.805 34.9598 205.805 54.2598C207.705 63.6598 209.505 71.4598 208.405 80.2598C207.005 92.0598 206.305 106.56 185.605 115.56C184.105 116.26 182.605 116.76 181.105 117.16L180.505 117.16C179.405 117.36 178.305 117.36 177.205 117.46C175.805 117.36 174.405 117.26 173.005 116.96C172.705 116.76 172.405 116.56 172.005 116.36C163.905 111.16 160.005 104.66 160.105 95.1598C161.805 96.8598 163.705 98.9598 164.305 101.46C163.005 92.9598 160.605 83.7598 153.505 78.0598C158.905 78.0598 164.305 77.6598 169.705 77.1598C162.305 74.8598 155.705 70.9598 148.705 67.6598C155.005 66.5598 161.305 65.0598 166.805 61.9598C159.505 61.4598 152.105 61.2598 145.005 59.3598C142.805 58.7598 138.905 57.9598 137.405 56.0598C137.205 55.7598 136.705 55.5598 136.305 55.2598C139.805 51.2598 142.605 45.6598 137.305 41.8598C138.105 50.1598 133.805 51.9598 126.505 51.4598C116.705 50.8598 105.205 49.6598 96.305 54.5598C94.305 55.6598 91.205 57.4598 90.705 59.9598C83.405 62.7598 76.105 66.3598 73.505 74.2598C73.605 74.6598 90.605 74.4598 99.105 74.7598C105.705 74.9598 112.905 75.0598 119.105 77.6598C133.905 83.9598 127.505 103.06 120.705 113.06C120.305 113.66 119.805 114.36 119.405 114.96C119.305 114.96 119.205 115.06 119.105 115.06C118.205 115.76 117.205 116.36 116.205 116.76C98.405 119.06 84.205 114.96 71.905 97.0598C69.905 94.1598 68.005 91.0598 66.905 87.7598C65.905 84.7598 64.605 80.7598 63.905 74.4598C63.505 70.9598 63.905 59.9598 64.605 56.4598C66.705 45.3598 75.505 20.7598 96.105 5.1598C97.305 4.2598 102.005 1.8598 102.005 0.459798C99.905 -0.240202 97.805 -0.240202 93.005 1.1598C90.005 2.0598 87.005 2.7598 84.005 3.8598C73.205 7.6598 65.405 14.8598 57.205 26.2598C50.205 39.1598 38.905 62.8598 55.805 96.1598C62.005 108.36 70.605 115.66 79.705 119.46C69.105 116.46 58.905 109.46 51.905 95.6598C35.005 62.3598 49.205 30.7598 48.905 31.0598C49.005 30.9598 52.605 22.6598 55.305 18.1598C56.805 15.6598 58.805 12.7598 60.805 10.5598C62.705 8.5598 68.005 4.4598 69.805 2.2598C57.305 4.95979 45.205 12.8598 38.305 24.2598C27.805 41.4598 29.905 61.6598 29.905 61.5598C29.505 68.8598 30.605 87.1598 45.905 109.96C50.105 116.26 55.705 121.76 62.005 125.66C54.905 122.36 48.505 117.36 43.605 110.46C28.105 88.6598 27.605 67.5598 26.905 58.5598C26.905 51.5598 27.505 46.4598 28.405 39.4598C29.205 32.6598 31.605 26.0598 33.605 18.4598C23.805 30.9598 15.105 42.9598 13.505 58.9598C11.905 74.6598 16.005 88.7598 23.205 102.36C23.005 102.06 22.805 101.76 22.605 101.56C25.705 107.36 32.405 120.06 44.205 128.86C36.205 124.46 29.205 118.56 24.205 111.16C14.605 96.9598 11.805 83.4598 9.70501 72.3598C9.20501 69.6598 8.20501 55.0598 7.60501 52.2598C3.10501 63.8598 -0.194992 76.1598 1.60501 88.7598C3.10501 99.4598 6.40501 110.26 12.505 119.26C15.905 124.26 20.105 128.56 24.305 132.86C17.805 129.26 12.605 123.86 8.50501 117.66C5.10501 112.56 3.30502 106.56 0.00501251 101.36C-0.294991 123.46 12.905 147.66 33.205 157.16C40.005 160.36 47.105 162.66 54.205 164.96C43.705 164.86 34.005 163.76 25.905 156.46C26.305 163.26 32.305 166.86 37.505 170.26C42.905 173.76 49.005 176.06 55.205 177.56C62.705 179.36 70.405 179.86 78.105 180.06C85.505 180.26 93.205 179.46 100.505 181.06C107.605 182.66 113.905 187.06 117.805 193.16C113.905 200.36 110.105 207.66 109.005 215.86C108.105 222.66 108.805 229.56 109.505 236.36C110.005 241.26 110.505 246.06 111.005 250.96C117.205 243.56 117.805 232.76 119.005 223.66C120.105 227.66 118.905 232.86 118.805 236.86C118.705 243.06 119.205 249.26 120.305 255.36C122.605 268.16 128.205 280.26 129.805 293.06C130.305 296.86 130.405 300.66 130.105 304.46C129.905 307.56 128.205 311.16 129.405 314.26C136.005 304.76 138.905 296.66 138.005 284.96C137.005 273.26 134.605 261.96 132.605 250.46C131.505 244.06 131.705 237.86 132.305 231.46C131.705 247.26 137.605 262.76 143.905 277.06C145.605 266.86 148.805 257.06 151.005 246.96C153.305 236.36 153.005 226.86 149.705 216.56C154.505 219.86 156.205 226.06 157.105 231.56C162.805 222.16 160.705 214.86 157.905 204.76C155.205 194.86 156.105 185.66 166.905 181.86C176.505 178.46 187.305 179.96 197.305 179.86C208.205 179.76 219.405 178.76 229.605 174.86C239.205 171.16 245.105 164.86 250.005 156.06C239.005 162.56 228.905 167.36 215.905 164.66C227.705 162.06 239.505 159.26 249.305 151.76C259.005 144.36 266.905 133.76 270.805 122.26C272.805 116.36 273.505 110.26 274.005 104.16C272.705 105.06 271.805 106.36 271.005 107.66L271.005 107.66Z" transform="translate(165.0001 34)" id="Shape" fill="#070681" stroke="none" />
    </g>
    <g filter="url(#filter_1)">
      <path d="M112.7 0L110.8 0L110.8 31.1L112.7 31.1L112.7 0ZM194.2 0L196.1 0L196.1 31.1L194.1 31.1L194.1 27.8C193.4 28.9 192.4 29.8 191.1 30.4C189.8 31.1 188.4 31.4 186.9 31.4C185.4 31.4 184 31 182.8 30.3C181.6 29.6 180.6 28.6 179.9 27.3C179.2 26 178.8 24.6 178.8 23C178.8 21.3 179.2 19.9 179.9 18.6C180.6 17.3 181.6 16.3 182.9 15.7C184.2 15 185.6 14.7 187.1 14.7C188.5 14.7 189.8 15 191.1 15.7C192.4 16.4 193.4 17.3 194.1 18.4L194.1 1.52588e-05L194.2 0ZM266.8 14.7C268.3 14.7 269.5 15.1 270.4 16C271.3 16.9 271.8 18 271.9 19.5L271.9 31.2L269.9 31.2L269.9 20.1C269.8 19 269.5 18.2 268.9 17.5C268.3 16.8 267.4 16.5 266.2 16.5C265.1 16.5 264.1 16.8 263.2 17.3C262.3 17.8 261.5 18.6 261 19.5C260.4 20.4 260.2 21.5 260.2 22.6L260.2 31.2L258.3 31.2L258.3 0.0999756L260.2 0.0999756L260.2 18.5C260.8 17.4 261.7 16.5 262.9 15.8C264 15 265.3 14.7 266.8 14.7ZM90.2 21.5L103 21.5L106.8 31.1L109.1 31.1L96.8 0.799988L96.6 0.799988L84.4 31.1L86.4 31.1L90.2 21.5ZM252.2 30.8C253.5 30.4 254.7 29.9 255.8 29.2L254.8 27.5C252.6 28.9 250.2 29.6 247.7 29.6C245.2 29.6 243 29 241.1 27.9C239.2 26.8 237.7 25.3 236.7 23.3C235.7 21.3 235.2 19.1 235.2 16.8C235.2 14.4 235.8 12.2 236.9 10.2C238 8.10002 239.6 6.60002 241.5 5.40002C243.4 4.30003 245.5 3.70003 247.8 3.70003C250.2 3.70003 252.5 4.40004 254.8 5.80003L255.6 3.80003C253.2 2.30003 250.6 1.60004 247.7 1.60004C245 1.60004 242.5 2.30003 240.3 3.60004C238 4.90002 236.3 6.70003 235 9.00003C233.7 11.3 233.1 13.9 233.1 16.7C233.1 19.4 233.8 21.9 235 24.1C236.2 26.3 238 28.1 240.2 29.4C242.4 30.7 245 31.4 247.9 31.4C249.4 31.4 250.9 31.2 252.2 30.8ZM8.9 26.7C8.9 28.8 8.5 30.6 7.7 32.2C6.9 33.7 5.9 34.9 4.5 35.7C3.2 36.5 1.7 37 0 37L0 35.1C2.1 35 3.7 34.2 5 32.7C6.3 31.2 6.9 29.2 6.9 26.6L6.9 2L8.9 2L8.9 26.7ZM345.1 2L345.1 31.1L353.7 31.1C356.2 31.1 358.5 30.5 360.7 29.3C362.9 28.1 364.6 26.4 365.9 24.2C367.2 22 367.8 19.5 367.8 16.7C367.8 14.3 367.3 11.9 366.2 9.7C365.1 7.5 363.4 5.7 361.1 4.2C358.8 2.7 355.8 2 352.3 2L345.1 2ZM441.5 5.29999C440.5 4.79999 439.4 4.39999 438.2 4.09999C437 3.79999 435.8 3.59999 434.7 3.59999C432.8 3.59999 431.3 4.09999 430.1 4.99998C428.9 5.89998 428.4 7.19998 428.4 8.59999C428.4 9.59999 428.7 10.5 429.3 11.2C429.9 11.9 430.7 12.5 431.6 13C432.6 13.5 433.8 14 435.3 14.6C436.9 15.2 438.3 15.8 439.4 16.4C440.5 17 441.4 17.9 442.1 19C442.8 20.1 443.2 21.5 443.2 23.2C443.2 24.8 442.8 26.2 442.1 27.5C441.3 28.7 440.3 29.7 438.9 30.4C437.5 31.1 435.9 31.4 434.2 31.4C431.1 31.4 428.1 30.4 425 28.4L425.9 26.8C426.9 27.6 428.2 28.2 429.6 28.8C431.1 29.4 432.5 29.7 433.9 29.7C435.1 29.7 436.3 29.5 437.4 29C438.5 28.5 439.4 27.8 440.1 26.8C440.8 25.8 441.1 24.7 441.1 23.3C441.1 22 440.8 20.9 440.1 20.1C439.5 19.2 438.7 18.5 437.7 18C436.7 17.5 435.5 16.9 434 16.4C432.4 15.8 431 15.2 430 14.7C428.9 14.1 428 13.4 427.3 12.5C426.6 11.6 426.2 10.4 426.2 9C426.2 7.60001 426.5 6.39999 427.2 5.39999C427.9 4.29999 428.9 3.5 430.1 2.89999C431.3 2.29999 432.7 2 434.3 2C435.6 2 437 2.2 438.4 2.5C439.8 2.89999 441.1 3.3 442.1 3.8L441.5 5.29999ZM330 2.29999L331.8 2.29999L331.8 40.7L330 40.7L330 2.29999ZM347.1 29.2L353.1 29.2C355.4 29.2 357.6 28.7 359.5 27.7C361.4 26.7 362.9 25.2 364.1 23.3C365.2 21.4 365.8 19.2 365.8 16.6C365.8 14.3 365.3 12.2 364.3 10.3C363.3 8.40001 361.8 6.8 359.8 5.7C357.8 4.59999 355.4 4 352.6 4L347.1 4L347.1 29.2ZM90.9 19.6L102.2 19.6L96.6 5.29999L90.9 19.6ZM392.8 8.09998L390.8 8.09998L390.8 15.3L387.4 15.3L387.4 16.9L390.8 16.9L390.8 31.1L392.8 31.1L392.8 16.9L397.8 16.9L397.8 15.3L392.8 15.3L392.8 8.09998ZM469.2 16C468.3 15.1 467.1 14.7 465.6 14.7C464.3 14.7 463 15 461.8 15.4C460.6 16 459.7 16.9 459.1 18.1C459 17 458.4 16.1 457.5 15.4C456.6 14.7 455.5 14.4 454.2 14.4C452.8 14.4 451.5 14.8 450.3 15.5C449.1 16.2 448.2 17.2 447.6 18.4L447.4 14.9L445.7 14.9L445.7 30.9L447.6 30.9L447.6 22.3C447.6 21.2 447.9 20.2 448.4 19.2C448.9 18.3 449.7 17.5 450.6 17C451.5 16.5 452.5 16.2 453.6 16.2C454.7 16.3 455.6 16.6 456.2 17.3C456.8 18 457.1 18.8 457.2 19.8L457.2 31.1L459.1 31.1L459.1 22.3C459.1 21.2 459.4 20.2 460 19.3C460.6 18.4 461.3 17.6 462.2 17.1C463.1 16.6 464 16.3 465.1 16.3C466.3 16.4 467.1 16.7 467.7 17.4C468.3 18.1 468.6 18.9 468.7 19.9L468.7 31.2L470.6 31.2L470.6 19.5C470.6 18 470.1 16.9 469.2 16ZM217.2 18.9C217.8 17.6 218.7 16.6 220 15.8C221.3 15 222.6 14.6 223.9 14.6L223.8 16.5C222.6 16.5 221.5 16.8 220.5 17.3C219.5 17.8 218.7 18.6 218.1 19.5C217.5 20.4 217.2 21.5 217.2 22.6L217.2 31.1L215.3 31.1L215.3 15.1L217 15.1L217.2 18.9ZM41.6 23C41.6 21.5 42 20.1001 42.7 18.8C43.4 17.5 44.5 16.5 45.8 15.7C47.1 15 48.6 14.6 50.1 14.6C51.7 14.6 53.1 15 54.4 15.7C55.7 16.5 56.7 17.5 57.5 18.8C58.2 20.1001 58.6 21.5 58.6 23C58.6 24.6001 58.2 26 57.5 27.3C56.7 28.6001 55.7 29.6001 54.4 30.3C53.1 31.1001 51.7 31.4001 50 31.4001C48.4 31.4001 46.9 31.0001 45.6 30.3C44.3 29.6001 43.3 28.6001 42.5 27.3C41.9 26.1001 41.6 24.6001 41.6 23ZM312.2 29.8C313.9 29.8 315.5 29.2 316.9 28L317.9 29.4C317.1 30 316.2 30.5 315.2 30.9C314.2 31.3 313.2 31.5 312.2 31.5C310.6 31.5 309.1 31.1 307.8 30.4Q305.85 29.35 304.8 27.4C304.1 26.1 303.7 24.7 303.7 23.1C303.7 21.6 304.1 20.2 304.8 18.9C305.6 17.6 306.6 16.6 307.9 15.8C309.2 15 310.6 14.7 312.2 14.7C314.1 14.7 315.6 15.2 316.9 16.3C318.2 17.4 319.2 18.9 319.8 20.7L306.1 26C306.6 27.2 307.4 28.1 308.5 28.8C309.6 29.4 310.8 29.8 312.2 29.8ZM481 29.8C482.7 29.8 484.3 29.2 485.7 28L486.7 29.4C485.9 30 485 30.5 484 30.9C483 31.3 482 31.5 481 31.5C479.4 31.5 477.9 31.1 476.6 30.4Q474.65 29.35 473.6 27.4C472.9 26.1 472.5 24.7 472.5 23.1C472.5 21.6 472.9 20.2 473.6 18.9C474.4 17.6 475.4 16.6 476.7 15.8C478 15 479.4 14.7 481 14.7C482.9 14.7 484.4 15.2 485.8 16.3C487.1 17.4 488.1 18.9 488.7 20.7L475 26C475.5 27.2 476.3 28.1 477.4 28.8C478.4 29.4 479.6 29.8 481 29.8ZM28.7 15.1L27 15.1L27 15.1L26.7 18.7C26.1 17.5 25.2 16.5 24 15.8C22.8 15.1 21.5 14.7 20.2 14.7C18.5 14.7 17 15 15.7 15.7C14.4 16.4 13.4 17.3 12.6 18.6C11.9 19.8 11.5 21.4 11.5 23.1C11.5 24.8 11.9 26.2 12.6 27.5C13.3 28.7 14.3 29.7 15.5 30.4C16.8 31.1 18.2 31.4 19.7 31.4C21.2 31.4 22.6 31 23.9 30.3C25.2 29.6 26.2 28.7 26.8 27.7L26.8 31.1L28.7 31.1L28.7 15.1ZM69 14.7C70.5 14.7 71.7 15.1 72.6 16C73.5 16.9 74 18 74.1 19.5L74.1 31.2L72.1 31.2L72.1 20.1C72 19 71.7 18.2 71.1 17.5C70.5 16.8 69.6 16.5 68.4 16.5C67.3 16.5 66.3 16.8 65.4 17.3C64.5 17.8 63.7 18.5 63.2 19.5C62.6 20.4 62.4 21.5 62.4 22.7L62.4 31.3L60.5 31.3L60.5 15.3L62.2 15.3L62.4 18.9C62.9 17.7 63.8 16.7 65 16C66.1 15 67.5 14.7 69 14.7ZM123 29.8C124.7 29.8 126.3 29.2 127.7 28L128.7 29.4C127.9 30 127 30.5 126 30.9C125 31.3 124 31.5 123 31.5C121.4 31.5 119.9 31.1 118.6 30.4Q116.65 29.35 115.6 27.4C114.9 26.1 114.5 24.7 114.5 23.1C114.5 21.6 114.9 20.2 115.6 18.9C116.4 17.6 117.4 16.6 118.7 15.8C120 15 121.4 14.7 123 14.7C124.9 14.7 126.4 15.2 127.7 16.3C129 17.4 130 18.9 130.6 20.7L116.9 26C117.4 27.2 118.2 28.1 119.3 28.8C120.4 29.4 121.7 29.8 123 29.8ZM160.1 15.1L158.4 15.1L158.1 18.7C157.5 17.5 156.6 16.5 155.4 15.8C154.2 15.1 152.9 14.7 151.6 14.7C149.9 14.7 148.4 15 147.1 15.7C145.8 16.4 144.7 17.3 144 18.6C143.3 19.8 142.9 21.4 142.9 23.1C142.9 24.8 143.3 26.2 144 27.5C144.7 28.7 145.7 29.7 146.9 30.4C148.2 31.1 149.6 31.4 151.1 31.4C152.6 31.4 154 31 155.3 30.3C156.6 29.6 157.6 28.7 158.2 27.7L158.2 31.1L160.1 31.1L160.1 15.1ZM175.6 16C174.7 15.1 173.5 14.7 172 14.7C170.5 14.7 169.2 15 168 16C166.8 16.7 165.9 17.7 165.4 18.9L165.2 15.3L163.5 15.3L163.5 31.3L165.4 31.3L165.4 22.7C165.4 21.5 165.6 20.4 166.2 19.5C166.7 18.5 167.5 17.8 168.4 17.3C169.3 16.8 170.3 16.5 171.4 16.5C172.6 16.5 173.5 16.8 174.1 17.5C174.7 18.2 175 19 175.1 20.1L175.1 31.2L177.1 31.2L177.1 19.5C177 18 176.5 16.9 175.6 16ZM206.4 29.8C208.1 29.8 209.7 29.2 211.1 28L212.1 29.4C211.3 30 210.4 30.5 209.4 30.9C208.4 31.3 207.4 31.5 206.4 31.5C204.8 31.5 203.3 31.1 202 30.4Q200.05 29.35 199 27.4C198.3 26.1 197.9 24.7 197.9 23.1C197.9 21.6 198.3 20.2 199 18.9C199.8 17.6 200.8 16.6 202.1 15.8C203.4 15 204.8 14.7 206.4 14.7C208.3 14.7 209.8 15.2 211.2 16.3C212.5 17.4 213.5 18.9 214.1 20.7L200.4 26C200.9 27.2 201.7 28.1 202.8 28.8C203.8 29.4 205 29.8 206.4 29.8ZM290.8 15.1L289.1 15.1L288.8 18.7C288.2 17.5 287.3 16.5 286.1 15.8C284.9 15.1 283.6 14.7 282.3 14.7C280.6 14.7 279.1 15 277.8 15.7C276.5 16.4 275.5 17.3 274.7 18.6C274 19.8 273.6 21.4 273.6 23.1C273.6 24.8 274 26.2 274.7 27.5C275.4 28.7 276.4 29.7 277.6 30.4C278.9 31.1 280.3 31.4 281.8 31.4C283.3 31.4 284.7 31 286 30.3C287.3 29.6 288.3 28.7 288.9 27.7L288.9 31.1L290.8 31.1L290.8 15.1ZM385.9 15.1L384.2 15.1L383.8 18.7C383.2 17.5 382.3 16.5 381.1 15.8C379.9 15.1 378.6 14.7 377.3 14.7C375.6 14.7 374.1 15 372.8 15.7C371.5 16.4 370.5 17.3 369.7 18.6C369 19.8 368.6 21.4 368.6 23.1C368.6 24.8 369 26.2 369.7 27.5C370.5 28.7 371.5 29.7 372.7 30.4C374 31.1 375.4 31.4 376.9 31.4C378.4 31.4 379.8 31 381.1 30.3C382.4 29.6 383.4 28.7 384 27.7L384 31.1L385.9 31.1L385.9 15.1ZM412.4 15.1L414.1 15.1L414.1 31.1L412.2 31.1L412.2 27.7C411.6 28.7 410.6 29.6 409.3 30.3C408 31 406.6 31.4 405.1 31.4C403.6 31.4 402.2 31.1 400.9 30.4C399.7 29.7 398.7 28.7 398 27.5C397.3 26.2 396.9 24.8 396.9 23.1C396.9 21.4 397.3 19.8 398 18.6C398.8 17.3 399.8 16.4 401.1 15.7C402.4 15 403.9 14.7 405.6 14.7C406.9 14.7 408.2 15.1 409.4 15.8C410.6 16.5 411.5 17.5 412.1 18.7L412.4 15.1ZM32.8 30.9C33.8 31.2 34.8 31.4 35.8 31.4C37.6 31.4 38.9 31 39.9 30.3C40.8 29.4 41.3 28.2 41.3 26.7C41.3 25.4 40.9 24.5 40.1 23.9C39.3 23.2 38.2 22.7 36.7 22.2C35.5 21.7 34.6 21.3 34 20.9C33.4 20.5 33.1 19.8 33.1 19C33.1 18.2 33.4 17.6 34.1 17.1C34.7 16.6 35.5 16.4 36.3 16.4C37 16.4 37.6 16.6 38.3 16.8C38.9 17.1 39.5 17.5 39.9 18L40.8 16.6C39.6 15.4 38 14.8 36 14.8C34.6 14.8 33.4 15.2 32.5 16C31.6 16.8 31.1 17.9 31.1 19.2C31.1 20.3 31.4 21.2 32.1 21.9C32.8 22.6 33.8 23.2 35.1 23.6C36.2 23.9 37 24.2 37.5 24.4C38 24.6 38.4 24.9 38.8 25.3C39.2 25.7 39.4 26.3 39.4 27C39.4 28 39 28.7 38.3 29.2C37.6 29.7 36.7 29.9 35.7 29.9C34.9 29.9 34.1 29.7 33.3 29.4C32.5 29 31.8 28.6 31.3 28L30.4 29.3C31 30 31.8 30.5 32.8 30.9ZM294.8 30.9C295.8 31.2 296.8 31.4 297.8 31.4C299.6 31.4 301 31 301.9 30.3C302.8 29.4 303.3 28.2 303.3 26.7C303.3 25.4 302.9 24.5 302.1 23.9C301.3 23.2 300.2 22.7 298.7 22.2C297.5 21.7 296.6 21.3 296 20.9C295.4 20.5 295.1 19.8 295.1 19C295.1 18.2 295.4 17.6 296.1 17.1C296.7 16.6 297.5 16.4 298.3 16.4C299 16.4 299.6 16.6 300.3 16.8C300.9 17.1 301.5 17.5 301.9 18L302.8 16.6C301.6 15.4 300 14.8 298 14.8C296.6 14.8 295.4 15.2 294.5 16C293.6 16.8 293.1 17.9 293.1 19.2C293.1 20.3 293.4 21.2 294.1 21.9C294.8 22.6 295.8 23.2 297.1 23.6C298.2 23.9 299 24.2 299.5 24.4C300 24.6 300.4 24.9 300.8 25.3C301.2 25.7 301.4 26.3 301.4 27C301.4 28 301 28.7 300.3 29.2C299.6 29.7 298.7 29.9 297.7 29.9C296.9 29.9 296.1 29.7 295.3 29.4C294.5 29 293.8 28.6 293.3 28L292.4 29.3C293 30 293.8 30.5 294.8 30.9ZM143.8 31.1L141.5 31.1L136.5 24.4L131.8 31.1L129.8 31.1L135.6 23.1L129.6 15.1L132 15.1L137 21.8L141.6 15.1L143.6 15.1L137.9 23L143.8 31.1ZM203 17.1C204 16.5 205.1 16.2 206.3 16.2C207.5 16.2 208.6 16.5999 209.5 17.2C210.5 17.8 211.2 18.7 211.7 19.8L199.9 24.4C199.8 24 199.7 23.5 199.7 22.9C199.7 21.7 200 20.5 200.6 19.5C201.2 18.5 202 17.7 203 17.1ZM308.7 17.1C309.7 16.5 310.8 16.2 312 16.2C313.3 16.2 314.3 16.5999 315.2 17.2C316.2 17.8 316.9 18.7 317.4 19.8L305.6 24.4C305.5 24 305.4 23.5 305.4 22.9C305.4 21.7 305.7 20.5 306.3 19.5C306.9 18.5 307.7 17.7 308.7 17.1ZM477.5 17.1C478.5 16.5 479.6 16.2 480.8 16.2C482.1 16.2 483.1 16.5999 484 17.2C485 17.8 485.7 18.7 486.2 19.8L474.4 24.4C474.3 24 474.2 23.5 474.2 22.9C474.2 21.7 474.5 20.5 475.1 19.5C475.7 18.5 476.5 17.7 477.5 17.1ZM20.2 29.8C22 29.8 23.5 29.2 24.8 28.1C26.1 27 26.7 25.5 26.8 23.8L26.8 21.5C26.5 20 25.7 18.7 24.4 17.7C23.1 16.7 21.7 16.2 20.1 16.2C18.9 16.2 17.8 16.5 16.7 17C15.7 17.6 14.9 18.4 14.3 19.4C13.7 20.4 13.4 21.6 13.4 22.9C13.4 24.1 13.7 25.3 14.3 26.3C14.9 27.3 15.7 28.2 16.7 28.8C17.9 29.5 19 29.8 20.2 29.8ZM151.6 29.8C153.4 29.8 154.9 29.2 156.2 28.1C157.5 27 158.1 25.5 158.2 23.8L158.2 21.5C157.9 20 157.1 18.7 155.8 17.7C154.5 16.7 153.1 16.2 151.5 16.2C150.3 16.2 149.2 16.5 148.1 17C147.1 17.6 146.3 18.4 145.7 19.4C145.1 20.4 144.8 21.6 144.8 22.9C144.8 24.1 145.1 25.3 145.7 26.3C146.3 27.3 147.1 28.2 148.1 28.8C149.3 29.5 150.4 29.8 151.6 29.8ZM282.2 29.8C284 29.8 285.5 29.2 286.8 28.1C288.1 27 288.7 25.5 288.8 23.8L288.8 21.5C288.5 20 287.7 18.7 286.4 17.7C285.1 16.7 283.7 16.2 282.1 16.2C280.9 16.2 279.8 16.5 278.7 17C277.7 17.6 276.9 18.4 276.3 19.4C275.7 20.4 275.4 21.6 275.4 22.9C275.4 24.1 275.7 25.3 276.3 26.3C276.9 27.3 277.7 28.2 278.7 28.8C279.9 29.5 281 29.8 282.2 29.8ZM377.3 29.8C379.1 29.8 380.6 29.2 381.9 28.1C383.2 27 383.8 25.5 383.9 23.8L383.9 21.5C383.6 20 382.8 18.7 381.5 17.7C380.2 16.7 378.8 16.2 377.2 16.2C376 16.2 374.8 16.5 373.8 17C372.8 17.6 372 18.4 371.4 19.4C370.8 20.4 370.5 21.6 370.5 22.9C370.5 24.1 370.8 25.3 371.4 26.3C372 27.3 372.8 28.2 373.8 28.8C375 29.5 376.1 29.8 377.3 29.8ZM410.1 28.1C408.8 29.2 407.3 29.8 405.5 29.8C404.3 29.8 403.2 29.5 402 28.8C401 28.2 400.2 27.3 399.6 26.3C399 25.3 398.7 24.1 398.7 22.9C398.7 21.6 399 20.4 399.6 19.4C400.2 18.4 401 17.6 402 17C403.1 16.5 404.2 16.2 405.4 16.2C407 16.2 408.4 16.7 409.7 17.7C411 18.7 411.8 20 412.1 21.5L412.1 23.8C412 25.5 411.4 27 410.1 28.1ZM119.6 17.1C120.6 16.5 121.7 16.2 122.9 16.2C124.1 16.2 125.2 16.6 126.1 17.2C127.1 17.8 127.8 18.7 128.3 19.8L116.5 24.4C116.4 24 116.3 23.5 116.3 22.9C116.3 21.7 116.6 20.5 117.2 19.5C117.8 18.5 118.6 17.7 119.6 17.1ZM44.4 26.5C43.8 25.5 43.5 24.3 43.5 23.1C43.5 21.9001 43.8 20.8 44.3 19.8C44.9 18.8 45.7 17.9001 46.7 17.3C47.7 16.6001 48.9 16.3 50.1 16.3C51.3 16.3 52.4 16.6 53.4 17.2C54.4 17.8 55.2 18.6 55.8 19.7C56.4 20.7 56.7 21.9 56.7 23.1C56.7 24.3 56.4 25.5 55.8 26.5C55.2 27.6 54.4 28.4 53.4 29C52.4 29.6 51.3 29.9 50.1 29.9C48.9 29.9 47.8 29.6 46.8 29C45.8 28.4 45 27.5 44.4 26.5ZM192 28.1C190.8 29.2 189.2 29.8 187.4 29.8C186.2 29.8 185.1 29.5 184 29.1C183 28.5 182.2 27.6 181.6 26.6C181 25.6 180.7 24.4 180.7 23.2C180.7 21.9 181 20.7 181.6 19.7C182.2 18.7 183 17.9 184 17.3C185.1 16.7 186.2 16.4 187.4 16.4C189.1 16.4 190.5 16.9 191.8 17.9C193 18.9 193.8 20.2 194.1 21.8L194.1 23.8C194 25.5 193.3 26.9 192 28.1Z" transform="translate(61.00006 244.3)" id="Shape" fill="#FFFFFF" fill-rule="evenodd" stroke="none" />
    </g>
    <g filter="url(#filter_1)">
      <path d="M341.2 12L342.5 9.09998C342.9 8.7 343.3 8.3 343.7 7.8C344.1 7.40001 344.6 6.90001 345 6.40001C345.5 5.90001 345.9 5.40001 346.3 4.90001C346.7 4.40001 347 3.90001 347.3 3.40001C347.6 3 347.8 2.5 348 2.10001C348.2 1.7 348.3 1.3 348.3 1C348.3 0.699997 348.2 0.5 348 0.300003C347.9 0.100006 347.6 0 347.3 0C347 0 346.8 0.0999909 346.5 0.199997C346.2 0.400009 346 0.600006 345.7 0.800003C345.5 1 345.2 1.3 345 1.60001C344.7 1.90001 344.5 2.3 344.3 2.60001C344.1 2.90001 343.9 3.3 343.7 3.60001C343.5 4 343.3 4.3 343.2 4.60001C342.3 6.5 341.4 8.40001 340.6 10.3C340.328 10.9805 340.044 11.6493 339.753 12.3145L339.6 12.2C339.4 12.6 339.1 13.1 338.7 13.5C338.3 14 337.9 14.3 337.5 14.7C337.1 15.1 336.7 15.4 336.2 15.6C335.8 15.8 335.3 15.9 334.8 15.9C334.5 15.9 334.3 15.9 334.1 15.8C333.9 15.8 333.7 15.7 333.6 15.5L333.3 14.9C333.2 14.7 333.2 14.4 333.2 14C333.2 13.6 333.3 13.1 333.4 12.7C333.5 12.2 333.6 11.8 333.8 11.4C334 11 334.2 10.6 334.5 10.3C334.7 9.90001 335 9.60001 335.3 9.40001C335.6 9.10001 335.9 8.90001 336.2 8.8C336.6 8.70001 336.9 8.60001 337.2 8.60001C337.6 8.60001 337.9 8.7 338.1 8.8C338.3 8.90001 338.4 9.10001 338.4 9.3C338.4 9.5 338.3 9.59999 338.3 9.7L338.3 9.50002L338.2 9.50002C338 9.50002 337.8 9.50002 337.7 9.60002C337.5 9.60002 337.5 9.70001 337.4 9.80002C337.3 9.80002 337.3 9.90001 337.3 10L337.3 10.1C337.3 10.3 337.4 10.4 337.5 10.5C337.6 10.6 337.7 10.7 337.9 10.7C338 10.7 338.2 10.6 338.3 10.5C338.4 10.4 338.5 10.3 338.6 10.1C338.7 10 338.8 9.80002 338.8 9.60002C338.9 9.40002 338.9 9.30002 338.9 9.10002C338.9 9.00003 338.8 8.80003 338.8 8.70003C338.7 8.60004 338.6 8.40004 338.5 8.30003C338.4 8.20003 338.2 8.10004 338 8.00003C337.7 7.90002 337.4 7.90002 337.1 7.90002C336.8 7.90002 336.4 8.00002 336 8.10002C335.6 8.20003 335.2 8.40002 334.8 8.60002C334.4 8.90001 334 9.20001 333.7 9.50002C333.4 9.80002 333.1 10.2 332.8 10.6C332.6 11 332.4 11.5 332.2 12C332.166 12.1681 332.133 12.3363 332.103 12.5082C332.027 12.6218 331.951 12.7481 331.9 12.9C331.8 13.1 331.6 13.4 331.4 13.7L330.8 14.6C330.6 14.8 330.4 15.1 330.2 15.3C330 15.5 329.7 15.7 329.5 15.8C329.3 15.9 329 16 328.8 16L328.6 16C328.5 16 328.5 15.9 328.4 15.9C328.4 15.8 328.3 15.8 328.3 15.7C328.2 15.6 328.2 15.5 328.2 15.4C328.2 15.2 328.2 15 328.3 14.8C328.4 14.5999 328.4 14.3999 328.5 14.2L329.1 12.9999C329.2 12.6999 329.4 12.3999 329.5 12.1999L329.8 11.5999C329.8 11.4999 329.9 11.2999 329.9 11.1999L329.9 10.6999C329.9 10.6999 329.9 10.5999 329.8 10.4999C329.7 10.3999 329.6 10.2999 329.4 10.1999C329.2 10.0999 329 9.89993 328.7 9.59993C328.6 9.49994 328.5 9.49994 328.5 9.39993L328.5 8.89993C328.6 8.79994 328.6 8.69994 328.6 8.69994L328.3 8.49994L326 12.0999L326.4 12.3999L327 11.5C327.2 11.2 327.3 11 327.5 10.7C327.6 10.4 327.8 10.1 328 9.79996C328 9.89996 328.1 9.99995 328.2 10.1C328.3 10.2 328.4 10.2 328.5 10.3L328.7 10.5C328.8 10.5 328.8 10.5999 328.8 10.7C328.8 10.8999 328.8 11 328.7 11.2C328.6 11.3999 328.5 11.5999 328.3 11.8999C328.1 12.2 327.9 12.5 327.7 12.8999C327.5 13.3 327.3 13.6 327.2 14C327.1 14.4 327 14.7 327 15.1C327 15.4 327 15.6 327.1 15.8C327.2 16 327.3 16.2 327.4 16.3C327.6 16.4 327.7 16.5 327.9 16.6C328.1 16.7 328.3 16.7 328.5 16.7C328.8 16.7 329.2 16.7 329.5 16.5C329.8 16.4 330.1 16.2 330.4 15.9C330.7 15.6 331 15.3 331.2 15C331.4 14.6 331.6 14.3 331.8 14C331.868 13.8974 331.937 13.7948 332.001 13.6923C332.012 14.1494 332.106 14.5187 332.2 14.8C332.4 15.1 332.6 15.4 332.8 15.6C333.1 15.8 333.4 16 333.7 16.1C334 16.2 334.3 16.3 334.7 16.3C335.2 16.3 335.6 16.3 336.1 16.1C336.6 16 337 15.7 337.5 15.4C337.9 15.1 338.4 14.7 338.8 14.2C338.888 14.0901 338.976 13.9754 339.064 13.8569C338.713 14.6305 338.357 15.4074 338 16.2L339 16.6L340.8 13.3999C341.1 12.8999 341.6 12.2999 342 11.7999C342.5 11.2999 342.9 10.7999 343.4 10.3999C343.9 9.99994 344.3 9.69994 344.8 9.39993C345.3 9.09995 345.7 8.99994 346.1 8.99994C346.4 8.99994 346.5 9.09993 346.5 9.39993C346.5 9.59995 346.4 9.79994 346.3 9.99994C346.2 10.1999 346.1 10.4999 345.9 10.7999L345.3 11.6999C345.1 11.9999 344.9 12.2999 344.7 12.6999C344.6 13.0999 344.4 13.3999 344.3 13.7999C344.2 14.2 344.1 14.5 344.1 14.8999C344.1 15.2 344.1 15.3999 344.2 15.5999C344.3 15.7999 344.4 15.9999 344.6 16.0999C344.7 16.1999 344.9 16.2999 345.1 16.2999C345.3 16.3999 345.5 16.3999 345.7 16.3999C345.9 16.3999 346.2 16.3999 346.5 16.2C346.8 16.0999 347 15.8999 347.3 15.5999C347.5 15.3 347.8 15 348 14.7L348.103 14.5452C348.101 14.5968 348.1 14.6484 348.1 14.7C348.1 15.1 348.2 15.4 348.4 15.7C348.6 16 349 16.1 349.4 16.1C349.9 16.1 350.3 15.9 350.7 15.7C351.1 15.5 351.5 15.2 351.8 14.8L352.7 13.6C352.785 13.4859 352.863 13.3718 352.935 13.2578C352.923 13.3064 352.911 13.3539 352.9 13.4C352.8 13.8 352.8 14.1 352.8 14.3C352.8 14.6 352.8 14.9 352.9 15.2C353 15.5 353.1 15.7 353.3 15.9C353.5 16.1 353.7 16.3 353.9 16.4C354.1 16.5 354.4 16.6 354.7 16.6C355.3 16.6 355.7 16.5 356.2 16.2C356.6 15.9 357 15.6 357.4 15.2C357.7 14.8 358.1 14.4 358.4 13.9L358.401 13.8981C358.4 13.9324 358.4 13.9664 358.4 13.9999C358.4 14.4999 358.5 14.9999 358.7 15.2999C358.9 15.5999 359.1 15.8999 359.4 16.0999C359.6 16.2999 360 16.3999 360.3 16.4999C360.7 16.5999 361 16.5999 361.3 16.5999C361.7 16.5999 362.1 16.5 362.6 16.3999C363 16.3 363.5 16 364 15.7C364.5 15.3999 365 14.8999 365.5 14.3999C365.772 13.9927 366.089 13.5854 366.422 13.1156C366.408 13.2706 366.4 13.4313 366.4 13.6C366.4 14.1 366.5 14.5 366.6 14.8C366.8 15.1 367 15.4 367.2 15.6C367.5 15.8 367.8 16 368.1 16.1C368.4 16.2 368.7 16.3 369.1 16.3C369.6 16.3 370 16.3 370.5 16.1C371 16 371.4 15.7 371.9 15.4C372.3 15.1 372.8 14.7 373.2 14.2C373.551 13.7609 373.902 13.2448 374.254 12.7192C374.202 12.9635 374.151 13.1949 374.1 13.4C374 13.8 374 14.1 374 14.3C374 14.6 374 14.9 374.1 15.2C374.2 15.5 374.3 15.7 374.5 15.9C374.7 16.1 374.9 16.3 375.1 16.4C375.3 16.5 375.6 16.6 375.9 16.6C376.5 16.6 376.9 16.5 377.4 16.2C377.8 15.9 378.2 15.6 378.6 15.2C378.9 14.8 379.3 14.4 379.6 13.9C379.9 13.5 380.1 13 380.4 12.6L380 12.3C380 12.4 379.9 12.5 379.8 12.7C379.7 12.9 379.5 13.1 379.3 13.4C379.1 13.7 378.9 14 378.6 14.3C378.4 14.6 378.1 14.8 377.8 15.1L376.9 15.7C376.6 15.8 376.3 15.9 376 15.9C375.7 15.9 375.4 15.8 375.2 15.6C375 15.4 374.9 15.1 374.9 14.6C374.9 14.2 375 13.8 375.1 13.3C375.2 12.8 375.4 12.3 375.6 11.7C375.8 11.1 376 10.5 376.3 9.89996C376.6 9.29997 376.9 8.59998 377.2 7.99997L380.8 7.99997L381 7.39996L377.5 7.39996C377.9 6.79996 378.2 6.19997 378.5 5.59996C378.8 4.99995 379.1 4.49995 379.4 3.99995L378.9 3.69995C378.7 3.89995 378.4 4.19995 378.1 4.59995C377.8 4.99995 377.5 5.29996 377.3 5.69995C377.1 6.09995 376.9 6.39995 376.7 6.69995C376.5 6.99995 376.4 7.19995 376.3 7.29996L374.4 7.29996L374.3 8.00002L376.1 8.00002C375.7 8.80002 375.4 9.50002 375.1 10.2C374.8 10.9 374.6 11.5 374.4 12C374.371 12.1456 374.342 12.2912 374.313 12.4343L374 12.2C373.8 12.6 373.5 13.1 373.1 13.5C372.7 14 372.3 14.3 371.9 14.7C371.5 15.1 371.1 15.4 370.6 15.6C370.2 15.8 369.7 15.9 369.2 15.9C368.9 15.9 368.7 15.9 368.5 15.8C368.3 15.8 368.1 15.7 368 15.5L367.7 14.8999C367.6 14.7 367.6 14.4 367.6 14C367.6 13.5999 367.7 13.0999 367.8 12.7C367.9 12.2 368 11.7999 368.2 11.3999C368.4 10.9999 368.6 10.5999 368.9 10.2999C369.1 9.89995 369.4 9.59995 369.7 9.39995C370 9.09995 370.3 8.89995 370.6 8.79994C371 8.69995 371.3 8.59995 371.6 8.59995C372 8.59995 372.3 8.69994 372.5 8.79994C372.7 8.89995 372.8 9.09995 372.8 9.29994C372.8 9.49994 372.7 9.59993 372.7 9.69994L372.7 9.49995L372.6 9.49995C372.4 9.49995 372.2 9.49995 372.1 9.59996C371.9 9.59996 371.9 9.69995 371.8 9.79996C371.7 9.79996 371.7 9.89995 371.7 9.99995L371.7 10.1C371.7 10.3 371.8 10.3999 371.9 10.5C372 10.5999 372.1 10.7 372.3 10.7C372.4 10.7 372.6 10.6 372.7 10.5C372.8 10.4 372.9 10.3 373 10.1C373.1 9.99995 373.1 9.79996 373.2 9.59996C373.3 9.39996 373.3 9.29996 373.3 9.09996C373.3 8.99997 373.2 8.79997 373.2 8.69997C373.1 8.59998 373 8.39998 372.9 8.29997C372.8 8.19997 372.6 8.09998 372.4 7.99997C372.1 7.89996 371.9 7.89996 371.5 7.89996C371.2 7.89996 370.8 7.99995 370.4 8.09996C370 8.19997 369.6 8.39996 369.2 8.59996C368.8 8.89995 368.5 9.19995 368.1 9.49995C367.8 9.79996 367.5 10.2 367.2 10.6C367 11 366.8 11.5 366.6 12C366.59 12.0507 366.58 12.1014 366.57 12.1522L366.5 12.0999C365.6 13.4999 364.8 14.4999 363.9 15.0999C363 15.7999 362.1 16.0999 361.2 16.0999C361 16.0999 360.7 16.0999 360.5 15.9999C360.3 15.8999 360.1 15.7999 360 15.5999L359.7 14.9999C359.6 14.7999 359.6 14.5999 359.6 14.2999L359.6 13.6999C360 13.7 360.4 13.7 360.8 13.6C361.2 13.5 361.7 13.4 362.1 13.2L363.3 12.6C363.7 12.3 364 12.1 364.3 11.8C364.6 11.5 364.8 11.2 365 10.9C365.2 10.5 365.3 10.2 365.3 9.79996C365.3 9.49995 365.3 9.29996 365.2 9.09996C365.1 8.89996 365 8.69997 364.8 8.59996C364.7 8.39996 364.5 8.39996 364.3 8.29996C364.1 8.19995 363.9 8.19995 363.7 8.19995C363.4 8.19995 363.1 8.29994 362.7 8.39995C362.4 8.59996 362 8.79996 361.6 8.99995C361.2 9.19995 360.8 9.49995 360.4 9.89995C360 10.2999 359.7 10.7 359.4 11.0999C359.1 11.4999 358.9 11.9999 358.7 12.4999C358.684 12.5325 358.668 12.5664 358.653 12.6013C358.636 12.6314 358.618 12.6641 358.6 12.7C358.5 12.9 358.3 13.1 358.1 13.4C357.9 13.7 357.7 14 357.4 14.3C357.2 14.6 356.9 14.8 356.6 15.1L355.7 15.7C355.4 15.8 355.1 15.9 354.8 15.9C354.5 15.9 354.2 15.8 354 15.6C353.8 15.4 353.7 15.1 353.7 14.6C353.7 14.2 353.8 13.8 353.9 13.3C354 12.8 354.2 12.3 354.4 11.7C354.6 11.1 354.8 10.5 355.1 9.89996C355.4 9.29997 355.7 8.59998 356 7.99997L359.6 7.99997L359.8 7.39996L356.3 7.39996C356.7 6.79996 357 6.19997 357.3 5.59996C357.6 4.99995 357.9 4.49995 358.2 3.99995L357.7 3.69995C357.5 3.89995 357.2 4.19995 356.9 4.59995C356.6 4.99995 356.3 5.29996 356.1 5.69995C355.9 6.09995 355.7 6.39995 355.5 6.69995C355.3 6.99995 355.2 7.19995 355.1 7.29996L353.579 7.29996C353.619 7.24521 353.66 7.18074 353.7 7.09995C353.8 6.99995 353.8 6.79996 353.8 6.69995C353.8 6.49995 353.7 6.39995 353.6 6.39995C353.5 6.29996 353.4 6.19995 353.2 6.19995C353.1 6.19995 352.9 6.19995 352.8 6.29996C352.7 6.39995 352.6 6.59995 352.5 6.69995C352.4 6.79994 352.3 6.89995 352.3 7.09995C352.2 7.29994 352.2 7.39993 352.2 7.49994C352.2 7.59995 352.2 7.69994 352.3 7.79994C352.4 7.89995 352.5 7.89995 352.6 7.89995C352.7 7.89995 352.9 7.89995 353 7.79994C353.024 7.78803 353.046 7.77611 353.067 7.76419L353 8.00002L354.9 8.00002C354.5 8.80002 354.2 9.50002 353.9 10.2C353.6 10.9 353.4 11.5 353.2 12L353.156 12.2173L353 12.1C352.7 12.5 352.5 12.9 352.2 13.3C351.9 13.7 351.7 14.1 351.4 14.4C351.1 14.7 350.9 14.9 350.6 15.1C350.3 15.3 350 15.4 349.7 15.4C349.5 15.4 349.4 15.4 349.3 15.3C349.2 15.2 349.2 15.1 349.2 14.9C349.2 14.7 349.2 14.4 349.3 14.1C349.4 13.7 349.5 13.4 349.7 13C349.8 12.6 350 12.2 350.2 11.8C350.4 11.4 350.6 11.1 350.8 10.7C351 10.3 351.1 9.99997 351.3 9.69997C351.5 9.39996 351.6 9.19997 351.7 8.99997L351.4 8.89996C351.1 9.29996 350.7 9.69997 350.3 10.1C349.9 10.6 349.5 11.1 349.2 11.6C348.9 12.2 348.6 12.7 348.4 13.2C348.394 13.2151 348.388 13.2303 348.382 13.2455C348.322 13.3333 348.261 13.4187 348.2 13.5L347.3 14.7C347 15.0999 346.7 15.3999 346.4 15.5999C346.1 15.7999 345.8 15.8999 345.6 15.8999C345.4 15.8999 345.3 15.8 345.2 15.7C345.1 15.6 345.1 15.5 345.1 15.3C345.1 15 345.2 14.7 345.3 14.4C345.4 14.1 345.5 13.8 345.7 13.5C345.8 13.2 346 12.8 346.2 12.5C346.4 12.1 346.5 11.8 346.7 11.5C346.9 11.2 347 10.9 347.1 10.6C347.2 10.3 347.3 10.1 347.3 9.79997C347.3 9.59998 347.2 9.49997 347.2 9.29997C347.2 9.19998 347.1 8.99998 347 8.89998C346.9 8.79997 346.8 8.69998 346.6 8.59998C346.5 8.49997 346.3 8.49997 346 8.49997C345.6 8.49997 345.2 8.59998 344.8 8.79997C344.4 8.89996 344 9.19997 343.6 9.49997C343.2 9.79997 342.8 10.2 342.4 10.6C342 11 341.6 11.5 341.2 12ZM353.067 7.76419C353.224 7.67611 353.312 7.58803 353.4 7.49994C353.46 7.44034 353.519 7.38074 353.579 7.29996L353.2 7.29996L353.067 7.76419ZM374.313 12.4343C374.293 12.5307 374.273 12.6259 374.254 12.7192C374.302 12.6463 374.351 12.5731 374.4 12.5L374.313 12.4343ZM366.57 12.1522L366.9 12.3999C366.739 12.6569 366.579 12.8932 366.422 13.1156C366.451 12.7749 366.509 12.4616 366.57 12.1522ZM358.653 12.6013C358.733 12.4641 358.8 12.382 358.8 12.3L359.2 12.6C358.9 12.9993 358.701 13.4984 358.401 13.8981C358.413 13.462 358.497 12.968 358.653 12.6013ZM353.156 12.2173L353.4 12.4C353.257 12.6859 353.114 12.9718 352.935 13.2578C353.009 12.9459 353.082 12.5855 353.156 12.2173ZM348.382 13.2455C348.618 12.9009 348.841 12.5187 349 12.2L349.4 12.5C349.3 12.6 349.2 12.8 349.1 13C349 13.2 348.8 13.5 348.6 13.8L348.103 14.5452C348.121 14.112 348.214 13.6787 348.382 13.2455ZM332.103 12.5082C332.177 12.3974 332.251 12.2987 332.3 12.2L332.7 12.5C332.6 12.7 332.5 12.9 332.3 13.1C332.234 13.2974 332.125 13.4948 332.001 13.6923C332 13.6619 332 13.6312 332 13.6C332 13.2018 332.044 12.8476 332.103 12.5082ZM339.753 12.3145L340 12.5C339.688 12.9681 339.376 13.4363 339.064 13.8569C339.297 13.3425 339.527 12.8296 339.753 12.3145ZM91.8 19L90.7 19L99.8999 0.100037L101 0.100037L91.8 19ZM201.1 19L200 19L209.2 0.100037L210.3 0.100037L201.1 19ZM234.2 0.700012L233.9 0.400009L233.9 0.399963C233.4 0.799973 233 1.19997 232.3 1.49997C231.7 1.29996 231.1 0.999969 230.4 0.899963C229.7 0.799973 229 0.699966 228.2 0.699966C227.2 0.699966 226.2 0.799973 225.2 0.999969C224.3 1.19997 223.4 1.49995 222.6 1.89996C221.8 2.29997 221.1 2.69997 220.5 3.19997C219.9 3.69997 219.3 4.19997 218.9 4.79997C218.5 5.39996 218.1 5.89996 217.9 6.49997C217.7 6.99997 217.6 7.59998 217.6 8.09998C217.6 8.49997 217.6 8.89998 217.8 9.29997C218 9.69997 218.2 9.99997 218.5 10.3C218.8 10.5 219.1 10.8 219.5 10.9C219.9 11 220.3 11.1 220.7 11.1C221.2 11.1 221.6 11.1 222 11C222.4 10.9 222.8 10.8 223.2 10.6C223.6 10.5 223.9 10.3 224.3 10.1C224.6 9.89996 225 9.69997 225.3 9.49997L225 9.09997L224.9 9.19998C224.8 9.29999 224.7 9.39998 224.5 9.49998L223.9 9.79999C223.7 9.89999 223.5 9.99998 223.2 10.1C223 10.2 222.7 10.3 222.4 10.4C222.1 10.5 221.8 10.5 221.5 10.5C221.2 10.5 220.8 10.4 220.5 10.3C220.2 10.2 219.9 10 219.7 9.8C219.4 9.60001 219.2 9.3 219.1 9C219 8.7 218.9 8.3 218.9 8C218.9 7.5 219 6.89999 219.2 6.39999C219.5 5.89999 219.8 5.39999 220.2 4.89999C220.6 4.39999 221.1 3.89999 221.7 3.5C222.3 3.09999 222.9 2.7 223.6 2.39999C224.3 2.09999 225.1 1.89999 225.9 1.7C226.7 1.5 227.5 1.39999 228.4 1.39999C229.1 1.39999 229.8 1.49998 230.4 1.59999C231 1.7 231.6 1.89999 232.1 2.09999C231.5 2.79999 230.9 3.59999 230.4 4.39999C229.9 5.2 229.4 6 229 6.89999C228.6 7.8 228.2 8.60001 227.8 9.5C227.4 10.4 227 11.2 226.6 12C226.2 12.8 225.8 13.5 225.4 14.2C225 14.9 224.5 15.4 224 15.9C223.4 15.7 222.9 15.6 222.4 15.5C221.8 15.4 221.3 15.3 220.8 15.3C220.4 15.3 220.1 15.3 219.8 15.4C219.5 15.5 219.3 15.6 219.1 15.7C218.9 15.8 218.8 15.9 218.7 16.1C218.6 16.3 218.6 16.4 218.6 16.6C218.6 16.7 218.6 16.9 218.7 17C218.7 17.2 218.8 17.3 219 17.4C219.2 17.5 219.4 17.5 219.6 17.6C219.9 17.7 220.2 17.7 220.5 17.7C221.3 17.7 222 17.6 222.7 17.4C223.3 17.2 223.9 16.9 224.5 16.5C225.2 16.7 225.9 16.8 226.7 17C227.5 17.1 228.3 17.2 229.2 17.2C230.1 17.2 231 17.1 231.8 16.9C232.6 16.7 233.3 16.4 233.9 16C234.5 15.7 235.1 15.2 235.5 14.7C236 14.2 236.3 13.6 236.6 13C236.9 12.4 237.1 11.8 237.2 11.1C237.3 10.4 237.4 9.8 237.4 9.10001C237.4 8.3 237.3 7.60001 237.1 6.90001C236.9 6.20001 236.7 5.50002 236.3 4.90001C236 4.30002 235.5 3.70001 235 3.20001C234.5 2.70001 233.9 2.3 233.2 1.90001C233.5 1.50002 233.8 1.10001 234.2 0.700012ZM114.8 8.90002C114.7 8.90002 114.6 8.80002 114.6 8.80002L114.1 9.40002C114.4 9.70003 114.8 10 115.3 10.2C115.8 10.4 116.3 10.5 117 10.5C117.6 10.5 118.2 10.4 118.7 10.2C119.3 10 119.8 9.80002 120.2 9.40002C120.6 9.10002 121 8.70003 121.4 8.20003C121.8 7.80003 122.1 7.30003 122.3 6.80003C122.6 6.30003 122.8 5.80003 122.9 5.30003C123 4.80003 123.1 4.30003 123.1 3.90004C123.1 3.30003 123 2.70003 122.8 2.30003C122.6 1.90002 122.3 1.50003 122 1.20003C121.7 0.900024 121.3 0.700027 120.9 0.600021C120.4 0.500031 120 0.400024 119.5 0.400024C118.8 0.400024 118 0.500031 117.3 0.700027C116.6 1.00003 115.9 1.30003 115.2 1.70003C114.5 2.10002 113.8 2.60002 113.2 3.10002C112.6 3.70003 112 4.30002 111.5 4.90002C111 5.50003 110.5 6.20003 110.1 6.90002C109.7 7.60004 109.3 8.30003 109 9.00003C108.7 9.70004 108.5 10.4 108.3 11.1C108.2 11.8 108.1 12.4 108.1 13C108.1 13.7 108.3 14.4 108.5 15.1C108.8 15.8 109.1 16.4 109.6 16.9C110.1 17.4 110.7 17.9 111.4 18.2C112.1 18.5 112.9 18.7 113.8 18.7C114.4 18.7 115.1 18.6 115.8 18.4C116.6 18.2 117.3 17.9 118 17.4C118.7 16.9 119.5 16.3 120.2 15.6C120.534 15.2186 120.867 14.8145 121.201 14.3768C121.213 14.739 121.306 15.0195 121.4 15.3C121.5 15.5 121.6 15.8 121.8 16C122 16.2 122.2 16.4 122.5 16.5C122.8 16.6 123.1 16.7 123.4 16.7C123.7 16.7 124 16.6 124.4 16.5C124.8 16.4 125.1 16.2 125.5 16C125.9 15.8 126.3 15.5 126.6 15.1C127 14.8 127.3 14.3 127.6 13.8L128 13.8C128.4 13.8 128.8 13.7 129.2 13.5C129.6 13.3 130 13 130.3 12.5L129.9 12.2C129.8 12.4 129.6 12.6 129.5 12.7C129.4 12.8 129.2 12.9 129.1 13C128.9 13.1 128.8 13.2 128.6 13.2C128.5 13.3 128.3 13.3 128.1 13.3L127.9 13.3C128 13.1 128.1 12.8 128 12.4C128.1 12.1 128.1 11.9 128.2 11.6C128.2 11.3 128.3 11.1 128.3 10.8C128.4 10.5 128.4 10.3 128.4 10.1C128.4 9.80002 128.4 9.60002 128.3 9.30002C128.3 9.10001 128.2 8.90001 128.1 8.70001C128 8.50002 127.9 8.40002 127.7 8.30002C127.6 8.20001 127.4 8.20001 127.2 8.20001C127 8.20001 126.8 8.3 126.6 8.40001C126.4 8.50002 126.2 8.70001 126.1 8.90001C126 9.10001 125.9 9.3 125.8 9.60001C125.7 9.89999 125.7 10.2 125.7 10.5C125.7 10.8 125.7 11.1 125.8 11.4C125.8 11.7 125.9 11.9 126 12.2C126.1 12.5 126.2 12.7 126.4 12.9C126.5 13.1 126.7 13.3 126.9 13.4C126.6 13.8 126.4 14.1 126.1 14.4C125.9 14.7 125.6 15 125.3 15.2C125 15.4 124.7 15.6 124.4 15.7C124.1 15.8 123.8 15.9 123.5 15.9C123.1 15.9 122.8 15.7 122.6 15.5C122.4 15.3 122.3 15 122.3 14.5C122.3 14 122.4 13.5 122.6 13C122.8 12.5 123.1 12 123.4 11.5C123.8 11 124.1 10.5 124.5 10.1C124.9 9.70001 125.3 9.40001 125.7 9.10001L125.4 8.70001C125.1 8.90002 124.7 9.10002 124.4 9.30002C124.1 9.50002 123.8 9.80002 123.5 10.1C123.2 10.3 122.9 10.7 122.6 11C122.3 11.4 122.1 11.7 121.9 12.1C121.7 12.5 121.5 12.8 121.4 13.2C121.385 13.2597 121.37 13.3171 121.356 13.373C121.539 13.0929 121.719 12.801 121.9 12.5L122.3 12.8C121.934 13.3756 121.567 13.8964 121.201 14.3768C121.2 14.3516 121.2 14.326 121.2 14.3C121.2 13.9597 121.272 13.6918 121.356 13.373C120.93 14.0236 120.489 14.6107 120 15.1C119.3 15.8 118.6 16.4 117.9 16.8C117.2 17.3 116.5 17.6 115.8 17.8C115.1 18 114.5 18.1 113.8 18.1C113.1 18.1 112.4 17.9 111.9 17.7C111.3 17.4 110.9 17.1 110.5 16.7C110.2 16.2 109.9 15.8 109.7 15.2C109.5 14.6 109.4 14 109.4 13.4C109.4 12.8 109.4 12.3 109.6 11.6C109.8 11 110 10.3 110.3 9.60004C110.5 8.90002 110.9 8.20003 111.3 7.50003C111.7 6.80003 112.2 6.10004 112.7 5.50003C113.2 4.90002 113.7 4.30003 114.3 3.70003C114.9 3.10002 115.5 2.60002 116.1 2.20003C116.7 1.80003 117.3 1.40002 118 1.20003C118.6 0.90004 119.3 0.800034 120 0.800034C120.4 0.800034 120.7 0.800034 121 0.90004C121.3 1.00005 121.6 1.20004 121.8 1.40004C122 1.60004 122.2 1.90004 122.3 2.20004C122.4 2.50005 122.5 2.90005 122.5 3.30005C122.5 3.60005 122.4 4.00005 122.3 4.50005C122.2 5.00005 122 5.40004 121.8 5.90004C121.5 6.40004 121.2 6.90004 120.9 7.30003C120.6 7.70003 120.2 8.10004 119.8 8.50003C119.4 8.80003 118.9 9.10004 118.4 9.30003C117.9 9.50003 117.4 9.60004 116.8 9.60004C116.5 9.60004 116.2 9.60004 115.9 9.50003C115.6 9.40002 115.4 9.30003 115.2 9.20003C115 9.10002 114.9 9.00003 114.8 8.90002ZM347.5 0.499954C347.2 0.499954 346.9 0.59996 346.6 0.899948L347.5 0.499954ZM53.4 0.799988C53.3 0.699997 53 0.599991 52.8 0.599991L52.0842 1.63874C52.0566 1.65816 52.0286 1.67856 52 1.69998C51.6 1.99998 51.2 2.39998 50.8 2.89998C50.4 3.39998 49.9 3.99998 49.5 4.69998C49 5.39998 48.6 6.09998 48.2 6.79999C47.9368 7.32649 47.6735 7.85298 47.4388 8.37947L45.0083 11.9063L45 11.9C44.9778 11.9444 44.9507 11.9887 44.9209 12.033L45.0083 11.9063L45.4 12.2C45.3 12.4 45.1 12.7 45 12.9C44.9224 13.0164 44.8598 13.1177 44.8007 13.2157C44.806 12.8603 44.8438 12.4724 44.8941 12.0719C44.7936 12.2146 44.6713 12.3573 44.6 12.5C44.4 12.7 44.3 13 44.1 13.2C43.9 13.4 43.7 13.7 43.5 13.9C43.3 14.2 43.1 14.4 42.9 14.6C42.7 14.8 42.5 15 42.3 15.1C42.1 15.2 41.9 15.3 41.7 15.3C41.6 15.3 41.5 15.3 41.4 15.2C41.3 15.2 41.3 15 41.3 14.8C41.3 14.6 41.3 14.3 41.4 14C41.5 13.6 41.6 13.3 41.8 12.9C41.9 12.6 42.1 12.2 42.3 11.8C42.5 11.4 42.7 11.1 42.9 10.7C43 10.3 43.2 10 43.4 9.70001C43.6 9.40001 43.7 9.20001 43.8 9.00002L43.5 8.90001L43.5 8.90007C43.4618 8.97646 43.409 9.05285 43.3639 9.1181C43.2909 9.22367 43.2382 9.30006 43.3 9.30006C43.2 9.40007 43 9.60007 42.9 9.80006C42.8 9.40007 42.6 9.00006 42.3 8.80006C42 8.60007 41.5 8.50006 40.8 8.50006C40.5 8.50006 40.2 8.50006 39.8 8.60007C39.4 8.70007 39 8.90007 38.6 9.10007C38.1 9.40005 37.7 9.60007 37.3 10.0001C36.9 10.3001 36.5 10.8001 36.1 11.3001C35.8442 11.6069 35.6408 11.9138 35.4764 12.2073L35.2 12C35 12.5 34.6 12.9 34.3 13.4C34 13.9 33.6 14.3 33.3 14.7C33 15.1 32.6 15.4 32.3 15.7C32 16 31.7 16.1 31.4 16.1C31.4 16.1 31.3 16.1 31.2 16C31.1 16 31.1 15.9 31.1 15.7C31.1 15.5 31.2 15.3 31.3 15C31.4 14.8 31.5 14.5 31.7 14.2C31.8 13.9 32 13.6 32.2 13.3C32.4 13 32.5 12.7 32.7 12.4C32.9 12.1 33 11.8 33.1 11.5C33.2 11.2 33.3 10.9 33.3 10.6C33.3 10.2001 33.2 9.90007 32.7 9.10007C32.6 8.80006 32.5 8.60007 32.3 8.50006C32.1 8.30006 32 8.30006 31.8 8.20006C31.6 8.10005 31.4 8.10005 31.3 8.10005C31.2 8.10005 31 8.20006 30.8 8.20006L30.2 8.50006C30 8.60007 29.8 8.80006 29.5 9.00006C29.2 9.20006 28.9 9.50006 28.6 9.80006C28.7 9.60005 28.7 9.40005 28.7 9.20006C28.7 9.00005 28.7 8.80005 28.6 8.60005C28.5 8.50006 28.4 8.30006 28.3 8.20006C28.2 8.10005 28 8.00006 27.9 7.90005C27.8 7.80005 27.7 7.80005 27.5 7.80005C27.2 7.80005 27 7.90005 26.7 8.10005C26.4 8.30005 26.2 8.60005 25.9 8.90005C25.6 9.20006 25.3 9.60005 25 10.1001C24.7 10.6001 24.4 11.1001 24 11.7001L24.4 12.0001C24.5 11.8 24.6 11.6001 24.8 11.4001C25 11.1001 25.1 10.9001 25.3 10.6001C25.4 10.3 25.6 10.1001 25.8 9.80005C26 9.60005 26.2 9.30005 26.4 9.10005C26.5 8.90005 26.7 8.70004 26.9 8.60005C27.1 8.50006 27.3 8.40005 27.4 8.40005C27.5 8.40005 27.6 8.40005 27.7 8.50006C27.8 8.60005 27.8 8.70006 27.8 8.90005C27.8 9.10005 27.8 9.30005 27.7 9.60005C27.6 9.90005 27.5 10.3001 27.3 10.7001C27.1 11 27 11.3 26.8 11.6001C26.7 11.9 26.5 12.2 26.3 12.5C26.2 12.8 26 13.1 25.8 13.4C25.7 13.7 25.5 14 25.3 14.2L24.1 15.9L25 16.3C25.1 16.2 25.2 16 25.3 15.9C25.4 15.7 25.5 15.6 25.6 15.4C25.8 15.2 25.9 15.1 26 14.9C26.2 14.7 26.3 14.6 26.4 14.4C26.7 14.1 27 13.7 27.3 13.3C27.8 12.6 28.3 12 28.7 11.5C29.1 11 29.5 10.6 29.9 10.2C30.3 9.90002 30.6 9.60002 30.9 9.40002C31.2 9.20003 31.5 9.10002 31.7 9.10002C31.9 9.10002 32.1 9.20001 32.2 9.30002C32.3 9.50003 32.4 9.70003 32.4 9.90002C32.4 10.1 32.3 10.3 32.2 10.6C32 10.9 31.9 11.2 31.7 11.5C31.5 11.8 31.3 12.2 31.1 12.5C30.9 12.8 30.7 13.2 30.5 13.5C30.3 13.8 30.1 14.2 30 14.5C29.9 14.8 29.8 15.1 29.8 15.4C29.8 15.6 29.8 15.7 29.9 15.9C30 16.1 30.1 16.2 30.2 16.3C30.3 16.5 30.4 16.5 30.6 16.6C30.7 16.7 30.9 16.7 31.1 16.7C31.4 16.7 31.8 16.6 32.1 16.4C32.5 16.2 32.8 16 33.1 15.7C33.4 15.4 33.7 15.1 34 14.7C34.2 14.4 34.5 14 34.7 13.7C34.8054 13.5595 34.8985 13.4436 34.9792 13.3394C34.8597 13.7219 34.8 14.0909 34.8 14.4001C34.8 14.8 34.8 15 34.9 15.3C35 15.5001 35.1 15.7001 35.3 15.9001C35.5 16.1001 35.7 16.2 35.9 16.3C36.2 16.4001 36.4 16.4001 36.7 16.4001C37 16.4001 37.2 16.4001 37.5 16.3C37.8 16.2001 38.1 16.1001 38.4 15.9001C38.7 15.7001 39 15.5001 39.3 15.2001C39.6 14.9001 39.9 14.6001 40.3 14.1001L40.3 14.5C40.3 14.9 40.4 15.2 40.6 15.5C40.8 15.8 41.1 15.9 41.5 15.9C41.8 15.9 42.1 15.8 42.4 15.7C42.7 15.5 42.9 15.4 43.2 15.2L43.9 14.5C44.1 14.2 44.3 14 44.5 13.7C44.6224 13.5164 44.7073 13.3703 44.8007 13.2157C44.8003 13.244 44.8 13.2721 44.8 13.3C44.8 13.8 44.9 14.2 45 14.6C45.1 15 45.3 15.3 45.5 15.5C45.7 15.7 45.9 15.9 46.2 16C46.4 16.1 46.7 16.2 47 16.2C47.3 16.2 47.7 16.1 48 15.9C48.4 15.7 48.7 15.5 49 15.2L49.9 14.3C50.2 14 50.4 13.7 50.6 13.4C50.6584 13.3124 50.7168 13.2334 50.7727 13.1604C50.7242 13.3819 50.7 13.6031 50.7 13.8C50.7 14.1 50.7 14.4 50.7999 14.7C50.8999 15 51 15.2 51.2 15.4C51.3999 15.5 51.6 15.7 51.7999 15.8C52.1 15.9 52.2999 16 52.6 16C52.9 16 53.1 15.9 53.4 15.8C53.6 15.6 53.9 15.5 54.2 15.3C54.4 15.1 54.7 14.9 55 14.6L55.8 13.8C55.6999 14 55.5999 14.2 55.4999 14.5C55.2999 14.8 55.1999 15.1 54.9999 15.4C54.7999 15.7 54.6999 16.1 54.4999 16.4C54.2999 16.8 54.0999 17.1 53.9999 17.4C53.3999 17.7 52.8999 18 52.2999 18.4C51.7 18.7 51.2 19.1 50.7 19.5C50.2 19.9 49.7 20.3 49.2999 20.7C48.8999 21.2 48.5 21.6 48.2 22C47.9 22.5 47.7 22.9 47.5 23.3C47.2999 23.7 47.2 24.1 47.2 24.5C47.2 25 47.2999 25.3 47.6 25.6C47.9 25.9 48.2 26 48.6 26C49.2 26 49.7 25.8 50.2999 25.4C50.8999 25 51.3999 24.4 51.9999 23.7C52.5999 23 53.0999 22.1 53.6999 21C54.1999 19.9 54.7999 18.8 55.3999 17.5C56.6999 16.8 57.7999 16 58.6999 15.2C59.4491 14.5341 60.129 13.7989 60.6819 13.052C60.6546 13.1741 60.6273 13.2908 60.6 13.4001C60.5 13.8001 60.5 14.1001 60.5 14.3001C60.5 14.6001 60.5 14.9001 60.6 15.2001C60.7 15.5001 60.8 15.7001 61 15.9001C61.2 16.1001 61.4 16.3 61.6 16.4001C61.8 16.5 62.1 16.6001 62.4 16.6001C63 16.6001 63.4 16.5001 63.9 16.2001C64.3 15.9001 64.7 15.6001 65.1 15.2001C65.2505 14.9994 65.4262 14.7987 65.6017 14.5855C65.6146 14.1647 65.6982 13.7439 65.8528 13.3231C66.0345 13.0648 66.2088 12.8824 66.3 12.7C66.4 12.5 66.5 12.4 66.5 12.3L66.9 12.6001C66.6 13 66.4 13.5 66.1 13.9001C65.9505 14.1492 65.7762 14.3736 65.6017 14.5855C65.6006 14.6236 65.6 14.6618 65.6 14.7C65.6 15.1 65.7 15.4 65.9 15.7C66.1 16 66.5 16.1 66.9 16.1C67.4 16.1 67.8 15.9 68.2 15.7C68.6 15.5 69 15.2 69.3 14.8L70.2 13.6C70.2 14.1 70.2999 14.5 70.3999 14.8C70.5999 15.1 70.7999 15.4 70.9999 15.6C71.2999 15.8 71.5999 16 71.8999 16.1C72.2 16.2 72.4999 16.3 72.8999 16.3C73.3999 16.3 73.7999 16.3 74.2999 16.1C74.7999 16 75.2 15.7 75.7 15.4C76.1 15.1 76.6 14.7 77 14.2C77.3999 13.7 77.8 13.1 78.2 12.5L77.8 12.2C77.6 12.6 77.3 13.1 76.9 13.5C76.5 14 76.1 14.3 75.7 14.7C75.3 15.1 74.9 15.4 74.4 15.6C74 15.8 73.5 15.9 73 15.9C72.7 15.9 72.5 15.9 72.3 15.8C72.1 15.8 71.9 15.7 71.8 15.5L71.5 14.9C71.4 14.7 71.4 14.4 71.4 14C71.4 13.6 71.5 13.1 71.6 12.7C71.7 12.2 71.8 11.8 72 11.4C72.2 11 72.4 10.6 72.7 10.3C72.9 9.90001 73.2 9.60001 73.5 9.40001C73.8 9.10001 74.1 8.90001 74.4 8.8C74.8 8.70001 75.1 8.60001 75.4 8.60001C75.8 8.60001 76.1 8.7 76.3 8.8C76.5 8.90001 76.6 9.10001 76.6 9.3C76.6 9.5 76.5 9.59999 76.5 9.7L76.5 9.50002L76.4 9.50002C76.2 9.50002 76 9.50002 75.9 9.60002C75.7 9.60002 75.7 9.70001 75.6 9.80002C75.5 9.80002 75.5 9.90001 75.5 10L75.5 10.1C75.5 10.3 75.5999 10.4 75.7 10.5C75.7999 10.6 75.8999 10.7 76.0999 10.7C76.1999 10.7 76.3999 10.6 76.4999 10.5C76.5999 10.4 76.6999 10.3 76.7999 10.1C76.8999 10 76.9999 9.80002 76.9999 9.60002C77.0999 9.40002 77.0999 9.30002 77.0999 9.10002C77.0999 9.00003 76.9999 8.80003 76.9999 8.70003C76.8999 8.60004 76.7999 8.40004 76.6999 8.30003C76.5999 8.20003 76.3999 8.10004 76.1999 8.00003C75.8999 7.90002 75.6999 7.90002 75.2999 7.90002C74.9999 7.90002 74.5999 8.00002 74.1999 8.10002C73.7999 8.20003 73.3999 8.40002 72.9999 8.60002C72.5999 8.90001 72.2 9.20001 71.8999 9.50002C71.5999 9.80002 71.2999 10.2 70.9999 10.6C70.7999 11 70.5999 11.5 70.3999 12C70.3778 12.1109 70.3556 12.2218 70.3345 12.3338C70.1182 12.6559 69.9415 12.9779 69.7 13.3C69.4 13.7 69.2 14.1 68.9 14.4C68.7 14.7 68.4 14.9 68.1 15.1C67.8 15.3 67.5 15.4 67.2 15.4C67 15.4 66.9 15.4 66.8 15.3C66.7 15.2 66.7 15.1 66.7 14.9C66.7 14.7 66.7 14.4 66.8 14.1C66.9 13.7 67 13.4 67.2 13C67.3 12.6 67.5 12.2 67.7 11.8C67.9 11.4 68.1 11.1 68.3 10.7C68.5 10.3 68.6 9.99997 68.8 9.69997C69 9.39996 69.1 9.19997 69.2 8.99997L68.9 8.89996C68.6 9.29996 68.2 9.69997 67.8 10.1C67.4 10.6 67 11.1 66.7 11.6C66.4 12.2 66.1 12.7 65.9 13.2Q65.8754 13.2615 65.8528 13.3231C65.8352 13.348 65.8176 13.3736 65.8 13.4C65.6 13.7 65.4 14 65.1 14.3C64.9 14.6 64.6 14.8 64.3 15.1L63.4 15.7C63.1 15.8 62.8 15.9 62.5 15.9C62.2 15.9 61.9 15.8 61.7 15.6C61.5 15.4 61.4 15.1 61.4 14.6C61.4 14.2 61.5 13.8 61.6 13.3C61.7 12.8 61.9 12.3 62.1 11.7C62.3 11.1 62.5 10.5 62.8 9.90002C63.1 9.30003 63.4 8.60004 63.7 8.00003L67.3 8.00003L67.5 7.40002L64 7.40002C64.4 6.80002 64.7 6.20003 65 5.60002C65.3 5.00002 65.6 4.50002 65.9 4.00002L65.4 3.70001C65.2 3.90001 64.9 4.20001 64.6 4.60001C64.3 5.00002 64 5.30002 63.8 5.70001C63.6 6.10001 63.4 6.40001 63.2 6.70001C63 7.00002 62.9 7.20001 62.8 7.30002L60.9 7.30002L60.9 7.30008L60.8 8.00008L62.6 8.00008C62.2 8.80008 61.9 9.50008 61.6 10.2001C61.3 10.9001 61.1 11.5001 60.9 12.0001C60.8694 12.1531 60.8388 12.3061 60.8082 12.4562L60.5999 12.3C59.9999 13.1 59.2999 13.9 58.4999 14.7C57.7 15.5 56.7999 16.1 55.7999 16.7C56.1 16 56.3999 15.4 56.7 14.7C57 14 57.2999 13.3 57.6 12.7L58.5 10.9C58.7999 10.3 59 9.8 59.2 9.40001C59.3999 9.00002 59.6 8.70001 59.7 8.40001C59.7999 8.10002 59.8999 8.00002 59.8999 8.00002L59.3999 7.70001C59.2 8.00002 58.8999 8.40002 58.7 8.80002C58.5 9.10002 58.2 9.50003 58 9.90002C57.7999 10.3 57.5 10.8 57.2 11.2C56.8999 11.7 56.6 12.1 56.2999 12.5C55.9999 12.9 55.6 13.2 55.2999 13.6C54.8999 13.9 54.6 14.2 54.2999 14.5L53.3999 15.1C53.0999 15.2 52.7999 15.3 52.5999 15.3C52.3999 15.3 52.2999 15.3 52.1999 15.2C52.0999 15.2 52.0999 15.1 51.9999 15C51.9999 14.9 51.8999 14.8 51.8999 14.7L51.8999 14.3C51.8999 14 51.8999 13.6 51.9999 13.3C51.9999 13 52.2 12.6 52.2999 12.3C52.4999 12 52.6 11.6 52.7999 11.3C52.9999 11 53.1 10.7 53.2999 10.4C53.4999 10.2 53.6 9.90004 53.7999 9.70004C53.9 9.50005 54 9.30005 54.1 9.20004L53.6 8.90004C53.2999 9.20004 52.9 9.50005 52.6 9.90004C52.2999 10.2 52 10.7 51.7 11.1C51.4511 11.5148 51.2711 11.8607 51.1027 12.252L50.9 12.1C50.8 12.2 50.7 12.5 50.5 12.7C50.3 13 50.1 13.2 49.9 13.5C49.7 13.8 49.5 14 49.3 14.3C49.1 14.6 48.8 14.8 48.6 15C48.4 15.2 48.1 15.4 47.9 15.5C47.7001 15.6 47.4 15.7 47.2001 15.7C46.9 15.7 46.6 15.6 46.4 15.3C46.2 15 46.1 14.5 46.1 13.9L46.1 13.2C46.1 12.9 46.1 12.7 46.2 12.4L46.6 12L47 11.6L47.5 11.1C47.7 11 47.9 10.7 48.2 10.4C48.5 10.1 48.8 9.7 49.2 9.3C49.5 8.89999 50 8.3 50.5 7.7C50.8 7.39999 51 7.09999 51.3 6.7C51.5 6.39999 51.8 5.99999 52 5.59999C52.3 5.2 52.5 4.79999 52.7 4.39999C52.9 3.99998 53 3.69998 53.2 3.29999C53.4 2.89999 53.5 2.59999 53.6 2.29999C53.7 1.99998 53.7 1.69998 53.7 1.49998C53.7 1.09999 53.6 0.899994 53.4 0.799988ZM51.1027 12.252L51.3 12.4C51.3 12.4 51.2 12.5 51.1 12.7C51.0292 12.8416 50.9083 12.9832 50.7727 13.1604C50.8227 12.9319 50.8984 12.7031 51 12.5C51.0341 12.4148 51.0682 12.3324 51.1027 12.252ZM60.8082 12.4562L60.9999 12.6C60.8994 12.7508 60.7932 12.9017 60.6819 13.052C60.724 12.8638 60.7661 12.6627 60.8082 12.4562ZM70.3345 12.3338C70.2605 12.7268 70.2 13.1331 70.2 13.6C70.5 13.2 70.7 12.8 70.9 12.4L70.5 12.1C70.4415 12.1779 70.3868 12.2559 70.3345 12.3338ZM34.9792 13.3394C35.1282 13.1471 35.2351 12.9946 35.3 12.8C35.4 12.5 35.5 12.4 35.6 12.3L35.4764 12.2073C35.3192 12.4876 35.1977 12.7558 35.1 13.0001C35.0546 13.1136 35.0143 13.2271 34.9792 13.3394ZM47.4388 8.37947L52.0842 1.63874C52.4424 1.38622 52.7143 1.29999 52.9 1.29999C53 1.29999 53 1.3 53.1 1.39999C53.2 1.49998 53.2 1.49998 53.2 1.59999C53.2 1.89999 53.2 2.3 53 2.7C52.8 3.09999 52.6 3.59999 52.3 4.09999C52 4.59999 51.6 5.19998 51.2 5.79999C50.8 6.39999 50.3 6.99998 49.8 7.59999C49.3 8.19998 48.8 8.79999 48.2 9.49998C47.6 10.1 47 10.8 46.4 11.4C46.6 10.7 46.8 9.89998 47.1 9.19998C47.2026 8.92648 47.3168 8.65298 47.4388 8.37947ZM164.8 0.799988C164.7 0.699997 164.5 0.599991 164.2 0.599991L163.518 1.61542C163.48 1.64165 163.44 1.6698 163.4 1.69998C163 1.99998 162.6 2.39998 162.2 2.89998C161.8 3.39998 161.3 3.99998 160.9 4.69998C160.4 5.39998 160 6.09998 159.6 6.79999C159.246 7.50797 158.892 8.21594 158.607 8.92391L156.527 12.0202L156.5 12C156.424 12.1526 156.333 12.3051 156.233 12.4577L156.136 12.603C155.999 12.802 155.849 13.001 155.7 13.2L154.8 14.4C154.4 14.8 154.1 15.1 153.8 15.3C153.5 15.5 153.2 15.6 152.9 15.6C152.8 15.6 152.7 15.6 152.7 15.5C152.6 15.5 152.6 15.4 152.6 15.3C152.6 15 152.7 14.7 152.9 14.3C153.1 13.8 153.3 13.4 153.6 12.8C153.9 12.2 154.2 11.6 154.6 10.9C155 10.2 155.4 9.40001 155.8 8.60001L155 8.20001C154.8 8.60002 154.5 9.00002 154.2 9.50002C153.8 10 153.5 10.5 153.1 11.1C152.7 11.7 152.3 12.2 151.9 12.8C151.5 13.4 151 13.9 150.6 14.3C150.1 14.8 149.7 15.1 149.3 15.4C148.9 15.7 148.5 15.8 148.2 15.8C147.9 15.8 147.7 15.7 147.6 15.5C147.5 15.3 147.4 15.1 147.4 14.8C147.4 14.4 147.5 13.9 147.7 13.4C147.9 12.9 148.1 12.4 148.4 11.9L149.3 10.4C149.7 9.90002 149.9 9.50002 150.2 9.10002L149.7 8.80002L148.5 10C148.1 10.4 147.7 10.9 147.4 11.4C147.211 11.7147 147.022 12.0293 146.859 12.3439L146.8 12.3C146.3 13.1 145.7 13.8 145.2 14.4C144.7 15 144.2 15.4 143.6 15.7C143.8 15.4 144 15 144.2 14.5C144.3 14 144.4 13.5 144.4 12.9C144.4 12.5 144.4 12.1 144.3 11.7C144.3 11.3 144.2 10.9 144.1 10.6C144.1 10.3 144 9.99998 143.9 9.69998C143.8 9.39998 143.8 9.19998 143.8 9.09998C143.8 8.89998 143.9 8.69998 143.9 8.59998C143.9 8.49997 143.9 8.39998 144 8.29997C144.1 8.19997 144.1 8.09998 144.2 7.99997C144.2 7.89998 144.3 7.89998 144.3 7.79997L143.9 7.39996C143.5 7.89996 143.2 8.39996 142.8 8.99997C142.4 9.49997 142.1 9.99997 141.8 10.5C141.5 10.9 141.3 11.3 141.1 11.6C140.935 11.8472 140.838 12.0265 140.809 12.0819L140.7 12C140.4 12.5 140.1 12.9 139.8 13.4C139.5 13.9 139.1 14.3 138.8 14.7C138.5 15.1 138.1 15.4 137.8 15.7C137.5 16 137.2 16.1 136.9 16.1C136.9 16.1 136.8 16.1 136.7 16C136.6 16 136.6 15.9 136.6 15.7C136.6 15.5 136.7 15.3 136.8 15C136.9 14.8 137 14.5 137.2 14.2C137.3 13.9 137.5 13.6 137.7 13.3C137.9 13 138 12.7 138.2 12.4C138.4 12.1 138.5 11.8 138.6 11.5C138.7 11.2 138.8 10.9 138.8 10.6C138.8 10.2001 138.8 9.90007 138.6 9.10007C138.5 8.80006 138.4 8.60007 138.2 8.50006C138 8.30006 137.9 8.30006 137.7 8.20006C137.5 8.10005 137.3 8.10005 137.2 8.10005C137.1 8.10005 136.9 8.20006 136.7 8.20006L136.1 8.50006C135.9 8.60007 135.7 8.80006 135.4 9.00006C135.1 9.20006 134.8 9.50006 134.5 9.80006C134.6 9.60005 134.6 9.40005 134.6 9.20006C134.6 9.00005 134.6 8.80005 134.5 8.60005C134.4 8.50006 134.3 8.30006 134.2 8.20006C134.1 8.10005 133.9 8.00006 133.8 7.90005C133.6 7.80005 133.5 7.80005 133.3 7.80005C133 7.80005 132.8 7.90005 132.5 8.10005C132.2 8.30005 132 8.60005 131.7 8.90005C131.4 9.20006 131.1 9.60005 130.8 10.1001C130.5 10.6001 130.2 11.1001 129.8 11.7001L130.2 12.0001C130.3 11.8 130.4 11.6001 130.6 11.4001C130.8 11.1001 130.9 10.9001 131.1 10.6001C131.2 10.3 131.4 10.1001 131.6 9.80005C131.8 9.60005 132 9.30005 132.2 9.10005C132.3 8.90005 132.5 8.70004 132.7 8.60005C132.9 8.50006 133.1 8.40005 133.2 8.40005C133.3 8.40005 133.4 8.40005 133.5 8.50006C133.6 8.60005 133.6 8.70006 133.6 8.90005C133.6 9.10005 133.6 9.30005 133.5 9.60005C133.4 9.90005 133.3 10.3001 133.1 10.7001C132.9 11 132.8 11.3 132.6 11.6001C132.5 11.9 132.3 12.2 132.1 12.5L131.5 13.4C131.4 13.7 131.2 14 131 14.2L129.7 15.9L130.6 16.3C130.7 16.2 130.8 16 130.9 15.9C131 15.7 131.1 15.6 131.2 15.4C131.4 15.2 131.5 15.1 131.6 14.9C131.8 14.7 131.9 14.6 132 14.4C132.3 14.1 132.6 13.7 132.9 13.3C133.4 12.6 133.9 12 134.3 11.5C134.7 11 135.1 10.6 135.5 10.2C135.9 9.90002 136.2 9.60002 136.5 9.40002C136.8 9.20003 137.1 9.10002 137.3 9.10002C137.5 9.10002 137.7 9.20001 137.8 9.30002C137.9 9.50003 138 9.70003 138 9.90002C138 10.1 137.9 10.3 137.8 10.6C137.6 10.9 137.5 11.2 137.3 11.5C137.1 11.8 136.9 12.2 136.7 12.5C136.5 12.8 136.3 13.2 136.1 13.5C135.9 13.8 135.7 14.2 135.6 14.5C135.5 14.8 135.4 15.1 135.4 15.4C135.4 15.6 135.4 15.7 135.5 15.9C135.6 16.1 135.7 16.2 135.8 16.3C135.9 16.5 136 16.5 136.2 16.6C136.3 16.7 136.5 16.7 136.7 16.7C137 16.7 137.4 16.6 137.7 16.4C138.1 16.2 138.4 16 138.7 15.7C139 15.4 139.3 15.1 139.6 14.7C139.8 14.4 140.1 14 140.3 13.7C140.5 13.3 140.7 13.1 140.8 12.8C140.895 12.5143 140.991 12.41 141.086 12.3143L141.2 12.4C141.2 12.4 141.2 12.3 141.3 12.2C141.4 12.1 141.5 11.9 141.6 11.7C141.7 11.6 141.9 11.3 142 11.1C142.1 10.9 142.3 10.6 142.4 10.4C142.5 10.2 142.7 9.99997 142.8 9.79997C142.9 9.59998 143 9.49998 143.1 9.39998L143.1 9.79997C143.2 9.99997 143.2 10.2 143.2 10.5C143.3 10.8 143.3 11 143.3 11.3L143.3 12.9C143.3 13.1 143.3 13.4 143.2 13.7L142.9 14.6C142.8 14.8 142.7 15.1 142.5 15.3C142.3 15.5 142.1 15.7 141.9 15.8C141.6 15.9 141.4 16 141.1 16C140.9 16 140.7 16 140.6 15.9C140.5 15.9 140.4 15.8 140.3 15.7C140.2 15.6 140.1 15.5 140.1 15.4C140 15.3 140 15.2 140 15.2L139.6 15.3C139.7 15.8 139.9 16.1 140.3 16.4C140.7 16.7 141.2 16.8 141.7 16.8C142.3 16.8 142.9 16.6 143.4 16.4C143.9 16.1 144.4 15.8 144.9 15.4C145.4 15 145.8 14.6 146.2 14.1C146.243 14.0277 146.289 13.9555 146.336 13.8833C146.312 14.0555 146.3 14.2278 146.3 14.4C146.3 14.8 146.3 15 146.4 15.3C146.5 15.5 146.6 15.7 146.8 15.9C147 16.1 147.2 16.2 147.4 16.3C147.6 16.4 147.8 16.4 148.1 16.4C148.4 16.4 148.7 16.3 149 16.2C149.3 16.1 149.6 15.9 149.9 15.7C150.3 15.5 150.6 15.2 150.9 14.9C151.2 14.5 151.6 14.2 151.9 13.8C151.8 14.1 151.7 14.3 151.7 14.3C151.6 14.5 151.6 14.7 151.6 14.9C151.6 15 151.6 15.2 151.7 15.3C151.7 15.5 151.8 15.6 151.9 15.7C152 15.8 152.2 15.9 152.3 16C152.4 16.1 152.6 16.1 152.8 16.1C153.1 16.1 153.4 16.1 153.7 15.9C154 15.8 154.3 15.6 154.6 15.3C154.9 15 155.1 14.7 155.4 14.4C155.7 14.1 155.9 13.8 156.1 13.5L156.105 13.4927C156.126 13.9054 156.213 14.2527 156.3 14.6C156.4 15 156.6 15.3 156.8 15.5C157 15.7 157.2 15.9 157.5 16C157.7 16.1 158 16.2 158.3 16.2C158.6 16.2 159 16.1 159.3 15.9C159.7 15.7 160 15.5 160.3 15.2C160.6 14.9 160.8 14.6 161.1 14.3C161.4 14 161.6 13.7 161.8 13.4C162 13.1 162.2 12.9 162.3 12.7C162.4 12.5 162.5 12.4 162.5 12.4L162.1 12.1C162 12.2 161.9 12.5 161.7 12.7C161.6 13 161.4 13.2 161.2 13.5C161 13.8 160.8 14 160.6 14.3C160.4 14.6 160.1 14.8 159.9 15C159.7 15.2 159.4 15.4 159.2 15.5C159 15.6 158.7 15.7 158.5 15.7C158.2 15.7 157.9 15.6 157.7 15.3C157.5 15 157.4 14.5 157.4 13.9L157.4 13.2C157.4 12.9 157.4 12.7 157.5 12.4L157.9 12L158.3 11.6C158.5 11.5 158.6 11.3 158.8 11.1C159 11 159.2 10.7 159.5 10.4C159.8 10.1 160.1 9.7 160.5 9.3C160.8 8.89999 161.3 8.3 161.8 7.7C162.1 7.39999 162.3 7.09999 162.6 6.7C162.8 6.39999 163.1 5.99999 163.3 5.59999C163.6 5.2 163.8 4.79999 164 4.39999C164.2 3.99998 164.3 3.69998 164.5 3.29999C164.7 2.89999 164.8 2.59999 164.9 2.29999C165 1.99998 165 1.69998 165 1.49998C165 1.09999 165 0.899994 164.8 0.799988ZM156.105 13.4927C156.102 13.43 156.1 13.3659 156.1 13.3C156.1 13.0795 156.113 12.8455 156.136 12.603C156.169 12.5546 156.201 12.5061 156.233 12.4577L156.527 12.0202L156.9 12.3C156.9 12.4 156.8 12.5 156.6 12.7C156.501 12.8984 156.303 13.1951 156.105 13.4927ZM141.086 12.3143L141.1 12.3L140.809 12.0819C140.803 12.0938 140.8 12.1 140.8 12.1L141.086 12.3143ZM146.336 13.8833Q146.403 13.3916 146.6 12.9C146.674 12.7147 146.762 12.5293 146.859 12.3439L147.2 12.6C146.943 13.0277 146.613 13.4555 146.336 13.8833ZM158.607 8.92391L163.518 1.61542C163.859 1.38089 164.12 1.29999 164.3 1.29999C164.4 1.29999 164.4 1.3 164.5 1.39999C164.6 1.49998 164.6 1.49998 164.6 1.59999C164.6 1.89999 164.6 2.3 164.4 2.7C164.2 3.09999 164 3.59999 163.7 4.09999C163.4 4.59999 163 5.19998 162.6 5.79999C162.2 6.39999 161.7 6.99998 161.2 7.59999C160.7 8.19998 160.2 8.79999 159.6 9.49998C159 10.1 158.4 10.8 157.8 11.4C157.9 10.7 158.1 9.89998 158.5 9.19998C158.535 9.10796 158.57 9.01593 158.607 8.92391ZM269.2 11C269.4 11.2 269.6 11.2 269.9 11.3C269.9 11.5 269.8 11.8 269.3 12.2C269.2 12.5 269.1 12.9 268.9 13.2C268.7 13.5 268.5 13.9 268.3 14.2C268 14.5 267.8 14.8 267.5 15.1C267.2 15.4 266.9 15.6 266.6 15.8C266.3 15.9 265.9 16 265.6 16C265.4 16 265.3 15.9 265.1 15.9C265 15.9 264.8 15.8 264.7 15.7C264.6 15.6 264.5 15.5 264.4 15.3C264.3 15.1 264.3 14.9 264.3 14.6C264.3 14.4 264.4 14.2 264.4 13.9C264.4 13.7 264.5 13.4 264.6 13C264.7 12.6 264.8 12.2 265 11.8C265.1 11.3 265.3 10.8 265.6 10.3C266.4 9.80003 267.1 9.30003 267.7 8.80003C268.3 8.30003 268.9 7.80003 269.4 7.20003C269.9 6.60004 270.4 6.10004 270.8 5.50003C271.2 4.90002 271.5 4.40002 271.8 3.90002C272.1 3.50002 272.3 3.00002 272.4 2.60002C272.5 2.20003 272.6 1.90002 272.6 1.60002C272.6 1.40002 272.6 1.20003 272.5 1.10002L272.2 0.800018C272.1 0.700012 272 0.700012 271.9 0.700012L271.7 0.700012C271.3 0.700012 271 0.900009 270.6 1.10001C270.3 1.3 269.9 1.60001 269.5 2C269.2 2.40001 268.8 2.8 268.4 3.3C268 3.8 267.6 4.3 267.3 4.8C266.5 6.10001 265.7 7.39999 264.9 9C264.3 10.1 263.9 11.1 263.7 11.9C263.6 12.1001 263.4 12.3 263.3 12.5C263.1 12.7 263 13 262.8 13.2C262.6 13.4 262.4 13.7 262.2 13.9C262 14.2 261.8 14.4 261.6 14.6C261.4 14.8 261.2 15 261 15.1C260.8 15.2 260.6 15.3 260.4 15.3C260.3 15.3 260.2 15.3 260.1 15.2C260 15.2 260 15 260 14.8C260 14.6 260.1 14.3 260.2 14C260.3 13.6 260.4 13.3 260.6 12.9C260.7 12.6 260.9 12.2 261.1 11.8C261.3 11.4 261.5 11.1 261.7 10.7C261.9 10.3 262 10 262.2 9.70001C262.4 9.40001 262.5 9.20001 262.6 9.00002L262.3 8.90001L262.299 8.90092C262.099 9.10067 261.9 9.30006 262 9.30006C261.8 9.40007 261.6 9.60007 261.5 9.80006C261.4 9.40007 261.2 9.00006 260.9 8.80006C260.6 8.60007 260.1 8.50006 259.4 8.50006C259.1 8.50006 258.8 8.50006 258.4 8.60007C258 8.70007 257.6 8.90007 257.2 9.10007C256.8 9.40005 256.4 9.60007 256 10.0001C255.6 10.3001 255.2 10.8001 254.8 11.3001C254.303 11.897 254.003 12.494 253.803 12.9924C253.712 13.1101 253.606 13.241 253.5 13.4C253.3 13.7 253.1 14 252.8 14.3L252 15.1L251.1 15.7C250.8 15.8 250.5 15.9 250.2 15.9C249.9 15.9 249.6 15.8 249.4 15.6C249.2 15.4 249.1 15.1 249.1 14.6C249.1 14.2 249.2 13.8 249.3 13.3C249.4 12.8 249.6 12.3 249.8 11.7C250 11.1 250.2 10.5 250.5 9.90002C250.8 9.30003 251.1 8.60004 251.4 8.00003L255 8.00003L255.2 7.40002L251.7 7.40002L252.6 5.60002C252.9 5.00002 253.2 4.50002 253.5 4.00002L253 3.70001C252.8 3.90001 252.5 4.20001 252.2 4.60001C251.9 5.00002 251.6 5.30002 251.4 5.70001C251.2 6.10001 251 6.40001 250.8 6.70001C250.6 7.00002 250.5 7.20001 250.4 7.30002L248.5 7.30002L248.5 8.00008L250.3 8.00008C249.9 8.80008 249.6 9.50008 249.3 10.2001C249 10.9001 248.8 11.5001 248.6 12.0001L248.565 12.1739L248.2 11.9C248.1 12.1001 247.9 12.3 247.8 12.5C247.6 12.7 247.5 13 247.3 13.2C247.1 13.4 246.9 13.7 246.7 13.9C246.5 14.2 246.3 14.4 246.1 14.6C245.9 14.8 245.7 15 245.5 15.1C245.3 15.2 245.1 15.3 244.9 15.3C244.8 15.3 244.7 15.3 244.6 15.2C244.5 15.2 244.5 15 244.5 14.8C244.5 14.6 244.5 14.3 244.6 14C244.7 13.6 244.8 13.3 245 12.9C245.1 12.6 245.3 12.2 245.5 11.8C245.7 11.4 245.9 11.1 246.1 10.7C246.3 10.3 246.4 10 246.6 9.70001C246.8 9.40001 246.9 9.20001 247 9.00002L246.7 8.90001C246.5 9.10007 246.4 9.30006 246.4 9.30006C246.3 9.40007 246.1 9.60007 246 9.80006C245.9 9.40007 245.7 9.00006 245.4 8.80006C245.1 8.60007 244.6 8.50006 243.9 8.50006C243.6 8.50006 243.3 8.50006 242.9 8.60007C242.5 8.70007 242.1 8.90007 241.7 9.10007C241.2 9.40005 240.8 9.60007 240.4 10.0001C240 10.3001 239.6 10.8001 239.2 11.3001C238.7 11.9001 238.4 12.5001 238.2 13.0001C238 13.5001 237.9 14.0001 237.9 14.4001C237.9 14.8 238 15 238.1 15.3C238.2 15.5001 238.3 15.7001 238.5 15.9001C238.7 16.1001 238.9 16.2 239.1 16.3C239.4 16.4001 239.6 16.4001 239.9 16.4001C240.2 16.4001 240.4 16.4001 240.7 16.3C241 16.2001 241.3 16.1001 241.6 15.9001C241.9 15.7001 242.2 15.5001 242.5 15.2001C242.8 14.9001 243.1 14.6001 243.5 14.1001L243.5 14.5C243.5 14.9 243.6 15.2 243.8 15.5C244 15.8 244.3 15.9 244.7 15.9C245 15.9 245.3 15.8 245.6 15.7C245.9 15.5 246.1 15.4 246.4 15.2L247.1 14.5C247.3 14.2 247.5 14 247.7 13.7C247.9 13.4 248 13.2 248.2 12.9C248.282 12.7368 248.43 12.507 248.536 12.3192C248.457 12.7089 248.379 13.0854 248.3 13.4001C248.2 13.8001 248.2 14.1001 248.2 14.3001C248.2 14.6001 248.2 14.9001 248.3 15.2001C248.4 15.5001 248.5 15.7001 248.7 15.9001C248.9 16.1001 249.1 16.3 249.3 16.4001C249.5 16.5 249.8 16.6001 250.1 16.6001C250.7 16.6001 251.2 16.5001 251.6 16.2001C252 15.9001 252.4 15.6001 252.8 15.2001C253.008 14.923 253.264 14.6459 253.501 14.3356C253.5 14.3574 253.5 14.3788 253.5 14.4001C253.5 14.8 253.6 15 253.7 15.3C253.8 15.5001 253.9 15.7001 254.1 15.9001C254.3 16.1001 254.5 16.2 254.7 16.3C255 16.4001 255.2 16.4001 255.5 16.4001C255.7 16.4001 256 16.4001 256.3 16.3C256.6 16.2001 256.9 16.1001 257.2 15.9001C257.5 15.7001 257.8 15.5001 258.1 15.2001C258.4 14.9001 258.7 14.6001 259.1 14.1001L259.1 14.5C259.1 14.9 259.2 15.2 259.4 15.5C259.6 15.8 259.9 15.9 260.3 15.9C260.5 15.9 260.8 15.8 261.1 15.7C261.4 15.5 261.6 15.4 261.9 15.2L262.6 14.5C262.8 14.2 263 14 263.2 13.7C263.295 13.5579 263.367 13.4381 263.438 13.3196Q263.4 13.6789 263.4 14C263.4 14.5 263.5 14.9 263.6 15.2C263.7 15.5 263.9 15.8 264.1 16C264.3 16.2 264.5 16.3 264.8 16.4C265.1 16.5 265.4 16.5 265.7 16.5C266.2 16.5 266.6 16.3 267.1 16.1C267.5 15.9 268 15.5 268.4 15.1C268.8 14.7 269.2 14.1 269.5 13.5C269.9 12.9 270.1 12.2 270.3 11.4C270.4 11.2 270.4 11.1 270.4 10.9L270.4 10.4C270.4 10.2 270.3 9.89999 270.3 9.7C270.3 9.49998 270.2 9.29999 270.1 9.09999C270.1 8.89999 269.9 8.8 269.8 8.7C269.7 8.60001 269.5 8.5 269.3 8.5C269 8.5 268.8 8.60001 268.6 8.8C268.4 9 268.3 9.20001 268.3 9.60001C268.3 9.8 268.3 9.90001 268.4 10.1C268.5 10.3 268.6 10.4 268.7 10.6C268.9 10.7 269 10.9 269.2 11ZM263.438 13.3196C263.484 12.8878 263.571 12.4146 263.7 11.9L264.1 12.2C264 12.4 263.8 12.7 263.7 12.9C263.595 13.0579 263.517 13.188 263.438 13.3196ZM253.501 14.3356C253.511 13.947 253.611 13.4735 253.8 13.0001L253.803 12.9924C253.884 12.888 253.953 12.794 254 12.7C254.1 12.5 254.2 12.4 254.2 12.3L254.6 12.6001C254.3 13 254.1 13.5 253.8 13.9001C253.708 14.0537 253.606 14.1979 253.501 14.3356ZM248.536 12.3192C248.546 12.271 248.555 12.2225 248.565 12.1739L248.6 12.2C248.582 12.2368 248.56 12.277 248.536 12.3192ZM25.4 0.899963C25.6 0.899963 25.8 0.899963 26 0.999969C26.2 1.09998 26.4 1.19997 26.5 1.29997C26.7 1.39998 26.8 1.59998 26.9 1.79997C27 1.99997 27 2.19997 27 2.39998C27 2.79997 26.9 3.29997 26.6 3.89998C26.3 4.49998 25.9 5.09998 25.5 5.89998C25 6.69998 24.5 7.49998 24.1 8.29997C23.7 9.09998 23.3 9.89998 22.9 10.6C22.5 11.4 22.2 12.1 21.9 12.7C21.6 13.4 21.3 14 21.1 14.5C21.4 14.5 21.7 14.6 22 14.6L22.8 14.6L22.8 15.1L22.2 15.1C21.9 15.1 21.4 15.1 20.9 15C20.7 15.5 20.5 15.9 20.4 16.2C20.3 16.5 20.2 16.6 20.2 16.6L18.9 16.2L19.5 14.7C19 14.6 18.5 14.5 18 14.3C17.5 14.2 16.9 14 16.4 13.8C15.9 13.6 15.3 13.4 14.8 13.2C14.3 13 13.7 12.7 13.2 12.5C12.7 13 12.2 13.6 11.7 14.1C11.2 14.6 10.6 15.1 9.9 15.5C9.3 15.9 8.6 16.2 7.9 16.5C7.2 16.8 6.5 16.9 5.7 16.9C5 16.9 4.3 16.8 3.6 16.6C2.9 16.4 2.3 16.1 1.8 15.7C1.3 15.3 0.799999 14.8 0.5 14.3C0.200001 13.7 0 13.1 0 12.4C0 11.8 0.0999985 11.3 0.299999 10.9C0.5 10.5 0.799999 10.1 1.2 9.79999C1.6 9.49998 2 9.29999 2.5 9.19998C3 9.09998 3.5 8.99998 4.1 8.99998C4.5 8.99998 5 8.99998 5.5 9.09999C6 9.2 6.4 9.29999 6.9 9.49998C7.3 9.69998 7.8 9.99998 8.2 10.3C8.6 10.6 8.9 11 9.2 11.5L8.7 11.8C8.7 11.8 8.6 11.7 8.6 11.6C8.5 11.5 8.4 11.4 8.3 11.2C8.2 11.1 8 10.9 7.70001 10.8C7.5 10.6 7.2 10.5 6.90001 10.4C6.60001 10.3 6.20001 10.2 5.80001 10.1C5.40001 10 4.90001 10 4.40001 10C3.90001 10 3.40001 10.1 3 10.3C2.6 10.5 2.3 10.7 2 11C1.7 11.3 1.5 11.6 1.40001 11.9C1.30001 12.2 1.2 12.6 1.2 12.9C1.2 13.3 1.3 13.6 1.40001 14C1.5 14.3 1.7 14.6 1.90001 14.9C2.10001 15.2 2.40001 15.4 2.7 15.6C3 15.8 3.3 16 3.7 16.1C4 16.2 4.40001 16.3 4.8 16.4C5.2 16.5 5.5 16.5 5.9 16.5C6.6 16.5 7.3 16.4 7.9 16.2C8.5 16 9.2 15.7 9.7 15.3C10.3 14.9 10.8 14.5 11.3 14C11.8 13.5 12.3 13 12.7 12.5C12.2 12.2 11.8 11.9 11.4 11.6C11 11.3 10.6 10.9 10.3 10.5C10 10.1 9.8 9.7 9.6 9.2C9.4 8.8 9.4 8.3 9.4 7.8C9.4 7.40001 9.5 7 9.6 6.60001C9.8 6.20001 10 5.90001 10.2 5.60001C10.5 5.3 10.8 5.10001 11.1 4.90001C11.5 4.70001 11.9 4.70001 12.3 4.70001C12.8 4.70001 13.2 4.80002 13.6 4.90001C14 5 14.4 5.20001 14.8 5.50002C15.2 5.80002 15.5 6.10002 15.9 6.40001C16.2 6.8 16.5 7.10001 16.8 7.50002C17.6 6.60002 18.4 5.80002 19.2 5.00002C20 4.20001 20.8 3.50002 21.5 2.90001C22.2 2.3 22.9 1.8 23.6 1.50002C24.3 1.10002 24.9 0.900009 25.4 0.900009L25.4 0.899963ZM327 0.999969C326.8 0.899963 326.6 0.899963 326.4 0.899963L326.4 0.900009C325.9 0.900009 325.3 1.10002 324.6 1.50002C323.9 1.8 323.2 2.3 322.5 2.90001C321.8 3.50002 321 4.20001 320.2 5.00002C319.4 5.80002 318.6 6.60002 317.8 7.50002C317.5 7.10001 317.2 6.8 316.9 6.40001C316.5 6.10002 316.2 5.80002 315.8 5.50002C315.4 5.20001 315 5 314.6 4.90001C314.2 4.80002 313.8 4.70001 313.3 4.70001C312.9 4.70001 312.5 4.70001 312.1 4.90001C311.7 5.10001 311.4 5.3 311.1 5.60001C310.9 5.90001 310.7 6.20001 310.5 6.60001C310.4 7 310.3 7.40001 310.3 7.8C310.3 8.3 310.4 8.8 310.6 9.2C310.8 9.7 311 10.1 311.3 10.5C311.6 10.9 312 11.3 312.4 11.6C312.8 11.9 313.2 12.2 313.7 12.5C313.3 13 312.8 13.5 312.3 14C311.8 14.5 311.3 14.9 310.7 15.3C310.2 15.7 309.6 16 308.9 16.2C308.3 16.4 307.6 16.5 306.9 16.5C306.5 16.5 306.2 16.5 305.8 16.4C305.4 16.3 305 16.2 304.7 16.1C304.3 16 304 15.8 303.7 15.6C303.4 15.4 303.1 15.2 302.9 14.9C302.7 14.6 302.5 14.3 302.4 14C302.3 13.6 302.2 13.3 302.2 12.9C302.2 12.6 302.3 12.2 302.4 11.9C302.5 11.6 302.7 11.3 303 11C303.3 10.7 303.6 10.5 304 10.3C304.4 10.1 304.9 10 305.4 10C305.9 10 306.4 10 306.8 10.1C307.2 10.2 307.6 10.3 307.9 10.4C308.2 10.5 308.5 10.6 308.7 10.8C309 10.9 309.2 11.1 309.3 11.2C309.4 11.4 309.5 11.5 309.6 11.6C309.7 11.7 309.7 11.8 309.7 11.8L310.2 11.5C309.9 11 309.6 10.6 309.2 10.3C308.8 9.99998 308.3 9.69998 307.9 9.49998C307.4 9.29999 307 9.2 306.5 9.09999C306.1 8.99998 305.6 8.99998 305.2 8.99998C304.6 8.99998 304.1 9.09998 303.6 9.19998C303.1 9.29999 302.7 9.49998 302.3 9.79999C301.9 10.1 301.6 10.5 301.4 10.9C301.2 11.3 301.1 11.8 301.1 12.4C301.1 13.1 301.3 13.7 301.6 14.3C301.9 14.8 302.4 15.3 302.9 15.7C303.4 16.1 304 16.4 304.7 16.6C305.4 16.8 306.1 16.9 306.8 16.9C307.6 16.9 308.3 16.8 309 16.5C309.7 16.2 310.4 15.9 311 15.5C311.6 15.1 312.2 14.6 312.7 14.1C313.2 13.6 313.7 13 314.2 12.5C314.7 12.7 315.3 13 315.8 13.2C316.3 13.4 316.9 13.6 317.4 13.8C317.9 14 318.5 14.2 319 14.3C319.5 14.5 320 14.6 320.5 14.7L319.9 16.2L321.2 16.6C321.2 16.6 321.3 16.5 321.4 16.2C321.5 15.9 321.7 15.5 321.9 15C322.4 15.1 322.9 15.1 323.2 15.1L323.8 15.1L323.8 14.6L323 14.6C322.7 14.6 322.4 14.5 322.1 14.5C322.3 14 322.6 13.4 322.9 12.7C323.2 12.1 323.5 11.4 323.9 10.6C324.3 9.89998 324.7 9.09998 325.1 8.29997C325.5 7.49998 326 6.69998 326.5 5.89998C326.9 5.09998 327.3 4.49998 327.6 3.89998C327.9 3.29997 328 2.79997 328 2.39998C328 2.19997 328 1.99997 327.9 1.79997C327.8 1.59998 327.7 1.39998 327.5 1.29997C327.4 1.19997 327.2 1.09998 327 0.999969ZM266.3 9.20001C267 8.70001 267.6 8.30002 268.1 7.80002Q269 7.05002 269.6 6.30002C270.1 5.80002 270.4 5.30002 270.8 4.80002C271.1 4.30002 271.4 3.90002 271.7 3.40002C271.9 3.00003 272.1 2.60002 272.2 2.30002C272.3 2.00002 272.4 1.70001 272.4 1.50002C272.4 1.30002 272.3 1.20001 272.2 1.20001C271.9 1.20001 271.6 1.30002 271.3 1.60001C270.9 1.90001 270.5 2.3 270 3C269.5 3.60001 269 4.5 268.4 5.5C267.8 6.5 267.1 7.7 266.3 9.20001ZM318.2 7.99997C318.5 8.49997 318.8 9.09998 319.1 9.59998C319.4 10.2 319.6 10.7 319.9 11.2L320.5 12.7C320.7 13.2 320.8 13.6 321 14C321.8 12.2 322.7 10.4 323.7 8.59999C324.6 6.79999 325.7 5.09999 326.9 3.39999C327.1 3.09999 327.2 2.89999 327.3 2.7C327.4 2.5 327.4 2.39999 327.4 2.2C327.4 2 327.3 1.8 327.1 1.7C326.9 1.59999 326.7 1.5 326.4 1.5C325.6 1.5 324.5 2 323.2 3.10001C321.8 4.20001 320.1 5.8 318.2 7.99997ZM18.1 9.60004C17.8 9.10004 17.5 8.50003 17.2 8.00003C19.1 5.80006 20.7 4.20007 22.2 3.10007C23.5 2.00006 24.6 1.50006 25.4 1.50006C25.7 1.50006 25.9 1.60005 26.1 1.70006C26.3 1.80006 26.4 2.00006 26.4 2.20006C26.4 2.40005 26.4 2.50006 26.3 2.70006C26.2 2.90005 26.1 3.10005 25.9 3.40005C24.7 5.10005 23.7 6.80005 22.7 8.60005C21.7 10.4 20.8 12.2 20 14C19.8 13.6 19.7 13.2 19.5 12.7L18.9 11.2C18.6 10.7 18.4 10.2 18.1 9.60004ZM236.3 8.50002C236.3 7.80002 236.2 7.20001 236.1 6.60002C235.9 6.00002 235.7 5.40002 235.4 4.90002C235.1 4.40002 234.8 3.90002 234.3 3.50003C233.9 3.10004 233.4 2.70003 232.9 2.40002C232.4 3.20003 231.9 3.90002 231.5 4.80002C231.1 5.60002 230.7 6.50002 230.3 7.30002C229.9 8.20001 229.6 9.00002 229.2 9.90002C228.8 10.7 228.5 11.5 228.1 12.3C227.7 13.1 227.3 13.8 226.8 14.4C226.3 15.1 225.8 15.6 225.2 16.1C225.8 16.3 226.3 16.4 226.9 16.5C227.5 16.6 228.1 16.7 228.7 16.7C230 16.7 231.1 16.5 232 16.1C233 15.7 233.8 15.1 234.4 14.3C235 13.6 235.5 12.7 235.8 11.7C236.1 10.7 236.3 9.59999 236.3 8.50002ZM164.6 7.30002L162.7 7.30002L162.6 8.00008L164.4 8.00008C164 8.80008 163.7 9.50008 163.4 10.2001C163.1 10.9001 162.9 11.5001 162.7 12.0001C162.6 12.5001 162.5 13.0001 162.4 13.4001C162.3 13.8001 162.3 14.1001 162.3 14.3001C162.3 14.6001 162.3 14.9001 162.4 15.2001C162.5 15.5001 162.6 15.7001 162.8 15.9001C163 16.1001 163.2 16.3 163.4 16.4001C163.6 16.5 163.9 16.6001 164.2 16.6001C164.8 16.6001 165.2 16.5001 165.7 16.2001C166.1 15.9001 166.5 15.6001 166.9 15.2001C167.081 14.9588 167.298 14.7175 167.508 14.4543C167.503 14.5362 167.5 14.6181 167.5 14.7C167.5 15.1 167.6 15.4 167.8 15.7C168 16 168.4 16.1 168.8 16.1C169.3 16.1 169.7 15.9 170.1 15.7C170.5 15.5 170.9 15.2 171.2 14.8L172.1 13.6C172.4 13.2 172.6 12.8 172.8 12.4L172.4 12.1C172.1 12.5 171.9 12.9 171.6 13.3C171.3 13.7 171.1 14.1 170.8 14.4C170.6 14.7 170.3 14.9 170 15.1C169.7 15.3 169.4 15.4 169.1 15.4C168.9 15.4 168.8 15.4 168.7 15.3C168.6 15.2 168.6 15.1 168.6 14.9C168.6 14.7 168.6 14.4 168.7 14.1C168.8 13.7 168.9 13.4 169.1 13C169.2 12.6 169.4 12.2 169.6 11.8C169.8 11.4 170 11.1 170.2 10.7C170.4 10.3 170.5 9.99997 170.7 9.69997C170.9 9.39996 171 9.19997 171.1 8.99997L170.8 8.89996C170.4 9.29996 170.1 9.69997 169.7 10.1C169.3 10.6 168.9 11.1 168.6 11.6C168.333 12.1346 168.065 12.5899 167.869 13.0365C167.786 13.1428 167.693 13.2606 167.6 13.4C167.4 13.7 167.2 14 166.9 14.3L166.1 15.1L165.2 15.7C165 15.8 164.7 15.9 164.4 15.9C164.1 15.9 163.8 15.8 163.6 15.6C163.4 15.4 163.3 15.1 163.3 14.6C163.3 14.2 163.4 13.8 163.5 13.3C163.6 12.8 163.8 12.3 164 11.7C164.2 11.1 164.4 10.5 164.7 9.90002C165 9.30003 165.3 8.60004 165.6 8.00003L169.2 8.00003L169.4 7.40002L165.9 7.40002C166.3 6.80002 166.6 6.20003 166.9 5.60002C167.2 5.00002 167.5 4.50002 167.8 4.00002L167.3 3.70001C167 3.90001 166.7 4.20001 166.4 4.60001C166.1 5.00002 165.8 5.30002 165.6 5.70001C165.4 6.10001 165.2 6.40001 165 6.70001C164.8 7.00002 164.7 7.20001 164.6 7.30002ZM167.869 13.0365C167.964 12.9141 168.046 12.8071 168.1 12.7C168.2 12.5 168.3 12.4 168.3 12.3L168.7 12.6001C168.5 13 168.2 13.5 167.9 13.9001C167.781 14.0985 167.646 14.2811 167.508 14.4543C167.535 14.0362 167.633 13.6181 167.8 13.2C167.822 13.1455 167.845 13.0911 167.869 13.0365ZM10.2 8.10002C10.2 8.50002 10.3 8.80002 10.4 9.20003C10.5 9.50003 10.7 9.90002 11 10.2C11.2 10.5 11.5 10.8 11.9 11.1C12.2 11.4 12.6 11.6 13 11.9C13.5 11.2 14.1 10.6 14.6 9.90002C15.2 9.20003 15.7 8.60002 16.3 7.90002C16 7.60002 15.8 7.30002 15.5 7.00003C15.2 6.70003 14.9 6.50003 14.7 6.30003C14.4 6.10004 14.1 5.90004 13.8 5.80003C13.5 5.70003 13.2 5.60004 12.8 5.60004C12.4 5.60004 12.1 5.70004 11.8 5.80003C11.5 5.90004 11.2 6.10004 11 6.30003C10.8 6.50003 10.6 6.80003 10.5 7.10004C10.3 7.40003 10.2 7.80002 10.2 8.10002ZM311.5 9.20003C311.4 8.80002 311.3 8.50002 311.3 8.10002C311.3 7.80003 311.4 7.40004 311.6 7.10004C311.7 6.80003 311.9 6.50003 312.1 6.30003C312.3 6.10004 312.6 5.90004 312.9 5.80003C313.2 5.70004 313.5 5.60004 313.9 5.60004C314.3 5.60004 314.6 5.70003 314.9 5.80003C315.2 5.90004 315.5 6.10004 315.8 6.30003C316.1 6.50003 316.3 6.70003 316.6 7.00003C316.9 7.30002 317.1 7.60002 317.4 7.90002C316.8 8.60002 316.3 9.20003 315.7 9.90002C315.2 10.6 314.6 11.2 314.1 11.9C313.7 11.6 313.3 11.4 313 11.1C312.6 10.8 312.3 10.5 312.1 10.2C311.8 9.90002 311.6 9.50003 311.5 9.20003ZM71.3 6.70001C71.3 6.80002 71.3 7.00002 71.2 7.10001C71.1 7.3 71 7.40001 70.9 7.5C70.8 7.60001 70.7 7.7 70.5 7.8C70.4 7.90001 70.2 7.90001 70.1 7.90001C70 7.90001 69.9 7.90001 69.7999 7.8C69.7 7.7 69.7 7.60001 69.7 7.5C69.7 7.39999 69.7 7.3 69.7999 7.10001C69.7999 6.90001 69.8999 6.8 69.9999 6.70001C70.0999 6.60001 70.1999 6.40001 70.2999 6.30002C70.3999 6.20001 70.6 6.20001 70.7 6.20001C70.7999 6.20001 71 6.30002 71.1 6.40001C71.2 6.40001 71.2999 6.50002 71.3 6.70001ZM173.1 6.70001C173.1 6.80002 173.1 7.00002 173 7.10001C172.9 7.3 172.8 7.40001 172.7 7.5C172.6 7.60001 172.5 7.7 172.3 7.8C172.2 7.90001 172 7.90001 171.9 7.90001C171.8 7.90001 171.7 7.90001 171.6 7.8C171.5 7.7 171.5 7.60001 171.5 7.5C171.5 7.39999 171.5 7.3 171.6 7.10001C171.6 6.90001 171.7 6.8 171.8 6.70001C171.9 6.60001 172 6.40001 172.1 6.30002C172.2 6.20001 172.4 6.20001 172.5 6.20001C172.7 6.20001 172.8 6.30002 172.9 6.40001C173.1 6.40001 173.1 6.50002 173.1 6.70001ZM81.2 7.99997C81.2 7.89998 81.3 7.89998 81.3 7.79997L80.8 7.39996C80.4 7.89996 80.1 8.39996 79.7 8.99997C79.3 9.49997 79 9.99997 78.7 10.5C78.4 10.9 78.2 11.3 78 11.6C77.8 11.9 77.7 12.1 77.7 12.1L78.1 12.4C78.1 12.4 78.1 12.3 78.2 12.2C78.3 12.1 78.4 11.9 78.5 11.7C78.6 11.6 78.8 11.3 78.9 11.1C79 10.9 79.2 10.6 79.3 10.4C79.4 10.2 79.6 9.99997 79.7 9.79997C79.8 9.59998 79.9 9.49998 80 9.39998L80 9.79997C80.1 9.99997 80.1 10.2 80.1 10.5C80.2 10.8 80.2 11 80.2 11.3L80.2 12.9C80.2 13.1 80.2 13.4 80.1 13.7L79.8 14.6C79.7 14.8 79.6 15.1 79.4 15.3C79.2 15.5 79 15.7 78.8 15.8C78.5 15.9 78.3 16 78 16C77.8 16 77.6 16 77.5 15.9C77.4 15.9 77.3 15.8 77.2 15.7C77.1 15.6 77 15.5 77 15.4C76.9 15.3 76.9 15.2 76.9 15.2L76.5 15.3C76.6 15.8 76.8 16.1 77.2 16.4C77.6 16.7 78.1 16.8 78.6 16.8C79.2 16.8 79.8 16.6 80.3 16.4C80.8 16.1 81.3 15.8 81.8 15.4C82.3 15 82.7 14.6 83.1 14.1C83.4 13.6 83.8 13.1 84.1 12.6L83.7 12.3C83.2 13.1 82.6 13.8 82.1 14.4C81.6 15 81.1 15.4 80.5 15.7C80.8 15.4 81 15 81.2 14.5C81.3 14 81.4 13.5 81.4 12.9C81.4 12.5 81.4 12.1 81.3 11.7C81.3 11.3 81.2 10.9 81.1 10.6C81.1 10.3 81 9.99998 80.9 9.69998C80.8 9.39998 80.8 9.19998 80.8 9.09998C80.8 8.89998 80.9 8.69998 80.9 8.59998C80.9 8.49997 80.9 8.39998 81 8.29997C81.1 8.19997 81.1 8.09998 81.2 7.99997ZM284.6 7.79997C284.6 7.89998 284.5 7.89998 284.5 7.99997C284.4 8.09998 284.4 8.19997 284.3 8.29997C284.2 8.39998 284.2 8.49997 284.2 8.59998C284.2 8.69998 284.1 8.89998 284.1 9.09998C284.1 9.19998 284.1 9.39998 284.2 9.69998C284.3 9.99998 284.4 10.3 284.4 10.6C284.5 10.9 284.6 11.3 284.6 11.7C284.7 12.1 284.7 12.5 284.7 12.9C284.7 13.5 284.6 14 284.5 14.5C284.3 15 284.1 15.4 283.8 15.7C284.4 15.4 284.9 15 285.4 14.4C285.9 13.8 286.5 13.1 287 12.3L287.215 12.4616L287.2 12.5C287.095 12.7104 287.017 12.9761 286.967 13.2535C286.77 13.5356 286.569 13.8178 286.4 14.1C286 14.6 285.6 15 285.1 15.4C284.6 15.8 284.1 16.1 283.6 16.4C283.1 16.6 282.5 16.8 281.9 16.8C281.4 16.8 280.9 16.7 280.5 16.4C280.1 16.1 279.9 15.8 279.8 15.3L280.2 15.2C280.2 15.2 280.2 15.3 280.3 15.4C280.3 15.5 280.4 15.6 280.5 15.7C280.6 15.8 280.7 15.9 280.8 15.9C280.9 16 281.1 16 281.3 16C281.6 16 281.8 15.9 282.1 15.8C282.3 15.7 282.5 15.5 282.7 15.3C282.9 15.1 283 14.8 283.1 14.6L283.4 13.7C283.5 13.4 283.5 13.1 283.5 12.9L283.5 11.3C283.5 11 283.5 10.8 283.4 10.5C283.4 10.2 283.4 9.99997 283.3 9.79997L283.3 9.39998C283.2 9.49998 283.1 9.59998 283 9.79997C282.9 9.99997 282.7 10.2 282.6 10.4C282.5 10.6 282.3 10.9 282.2 11.1C282.1 11.3 281.9 11.6 281.8 11.7C281.713 11.8734 281.627 12.0467 281.54 12.155L281.2 11.9C281.161 11.9787 281.106 12.0573 281.048 12.1359L281 12.1C281 12.1 281.1 11.9 281.3 11.6C281.5 11.3 281.7 10.9 282 10.5C282.3 9.99997 282.6 9.49997 283 8.99997C283.4 8.39996 283.7 7.89996 284.1 7.39996L284.6 7.79997ZM281.048 12.1359L281.4 12.4C281.4 12.4 281.4 12.3 281.5 12.2C281.513 12.1867 281.527 12.1716 281.54 12.155L281.6 12.2C281.5 12.4 281.3 12.7 281.2 12.9C281 13.2 280.9 13.4 280.7 13.7C280.5 14 280.3 14.2 280.1 14.5L279.4 15.2C279.1 15.4 278.9 15.5 278.6 15.7C278.3 15.8 278 15.9 277.7 15.9C277.3 15.9 277 15.8 276.8 15.5C276.6 15.2 276.5 14.9 276.5 14.5L276.5 14.1001C276.1 14.6001 275.8 14.9001 275.5 15.2001C275.2 15.5001 274.9 15.7001 274.6 15.9001C274.3 16.1001 274 16.2001 273.7 16.3C273.4 16.4001 273.2 16.4001 272.9 16.4001C272.6 16.4001 272.4 16.4001 272.1 16.3C271.9 16.2 271.6 16.1001 271.5 15.9001C271.3 15.7001 271.2 15.5001 271.1 15.3C271 15 271 14.8 271 14.4001C271 14.0001 271.1 13.5001 271.3 13.0001C271.5 12.5001 271.8 11.9001 272.3 11.3001C272.7 10.8001 273.1 10.3001 273.5 10.0001C273.9 9.60007 274.3 9.40005 274.8 9.10007C275.2 8.90007 275.6 8.70007 276 8.60007C276.4 8.50006 276.7 8.50006 277 8.50006C277.7 8.50006 278.2 8.60007 278.5 8.80006C278.8 9.00006 279 9.40007 279.1 9.80006C279.2 9.60007 279.4 9.40007 279.5 9.30006C279.4 9.30006 279.5 9.10007 279.7 8.90001L280 9.00002C279.9 9.20001 279.8 9.40001 279.6 9.70001C279.4 10 279.2 10.3 279.1 10.7C278.9 11.1 278.7 11.4 278.5 11.8C278.3 12.2 278.1 12.6 278 12.9C277.8 13.3 277.7 13.6 277.6 14C277.5 14.3 277.5 14.6 277.5 14.8C277.5 15 277.5 15.2 277.6 15.2C277.7 15.3 277.8 15.3 277.9 15.3C278.1 15.3 278.3 15.2 278.5 15.1C278.7 15 278.9 14.8 279.1 14.6C279.3 14.4 279.5 14.2 279.7 13.9C279.9 13.7 280.1 13.4 280.3 13.2C280.5 13 280.6 12.7 280.8 12.5C280.861 12.3787 280.958 12.2573 281.048 12.1359ZM286.967 13.2535C287.12 13.0356 287.269 12.8178 287.4 12.6L287.215 12.4616C287.41 11.9744 287.608 11.4897 287.9 11.1C288.2 10.7 288.5 10.3 288.9 9.90001C289.3 9.50002 289.7 9.20001 290 9.00002C290.4 8.80002 290.8 8.60002 291.1 8.40001C291.5 8.3 291.8 8.20001 292.1 8.20001C292.3 8.20001 292.5 8.20001 292.7 8.30002C292.9 8.40002 293.1 8.40002 293.2 8.60002C293.4 8.70003 293.5 8.90002 293.6 9.10002C293.7 9.30002 293.7 9.50002 293.7 9.80002C293.7 10.2 293.6 10.5 293.4 10.9C293.2 11.2 293 11.5 292.7 11.8C292.4 12.1 292.1 12.3 291.7 12.6L290.5 13.2C290.1 13.4 289.7 13.5 289.2 13.6C288.8 13.7 288.4 13.7 288 13.7L288 14.3C288 14.6 288 14.8 288.1 15L288.4 15.6C288.5 15.8 288.7 15.9 288.9 16C289.1 16.1 289.4 16.1 289.6 16.1C290.5 16.1 291.4 15.8 292.3 15.1C293.2 14.5 294 13.5 294.9 12.1L295.3 12.4C294.8 13.2 294.3 13.8 293.9 14.4C293.4 14.9 292.9 15.4 292.5 15.7C292 16 291.5 16.3 291.1 16.4C290.6 16.5 290.2 16.6 289.8 16.6C289.5 16.6 289.2 16.6 288.8 16.5C288.5 16.4 288.1 16.3 287.9 16.1C287.6 15.9 287.4 15.6 287.2 15.3C287 15 286.9 14.5 286.9 14C286.9 13.763 286.922 13.5035 286.967 13.2535ZM181.2 10.6C181.2 10.9 181.1 11.2 181 11.5C180.9 11.8 180.8 12.1 180.6 12.3999C180.4 12.7 180.3 13 180.1 13.2999C179.9 13.5999 179.7 13.8999 179.6 14.1999C179.4 14.4999 179.3 14.7999 179.2 14.9999C179.1 15.2999 179 15.4999 179 15.6999C179 15.8999 179 15.9999 179.1 15.9999C179.2 16.0999 179.2 16.0999 179.3 16.0999C179.6 16.0999 179.9 15.9999 180.2 15.7C180.5 15.3999 180.9 15.0999 181.2 14.7C181.5 14.3 181.9 13.8999 182.2 13.3999C182.5 12.8999 182.9 12.5 183.1 12L183.432 12.2493C183.381 12.36 183.333 12.4725 183.286 12.5858C183.358 12.4424 183.429 12.3712 183.5 12.3L183.432 12.2493C183.576 11.9432 183.748 11.6518 184 11.4C184.3 11 184.7 10.6 185.1 10.2C185.5 9.8 185.9 9.5 186.4 9.3C186.8 9.10001 187.3 8.90001 187.7 8.7C188.1 8.59999 188.5 8.5 188.9 8.5C189.3 8.5 189.6 8.5 189.8 8.60001C190 8.70001 190.3 8.8 190.4 8.90001C190.6 9.00002 190.7 9.10001 190.8 9.3C190.9 9.40001 191 9.5 191 9.7L191.6 8.89999L192 9.09999C192 9.09999 191.9 9.2 191.8 9.39999C191.7 9.59999 191.5 9.89999 191.4 10.3C191.2 10.7 191 11.1 190.8 11.6C190.6 12.1 190.3 12.6 190 13.2C189.7 13.8 189.5 14.3 189.2 14.9C188.9 15.5 188.7 16.1 188.4 16.6C189.1 16.2 189.6 15.9 190.1 15.5C190.6 15.2 191 14.8 191.4 14.5L192.5 13.4L193.4 12.2L193.8 12.5C193.5 13 193.2 13.4 192.9 13.8C192.6 14.2 192.2 14.6 191.7 15C191.3 15.4 190.7 15.8 190.1 16.2C189.5 16.6 188.8 17.1 188 17.6C187.3 19.3 186.7 20.6 186 21.7C185.4 22.8 184.8 23.7 184.2 24.3C183.6 24.9 183.1 25.4 182.6 25.6C182.1 25.9 181.7 26 181.3 26C181.1 26 181 26 180.8 25.9C180.6 25.9 180.5 25.8 180.3 25.7C180.1 25.6 180 25.4 179.9 25.2C179.8 25 179.7 24.7 179.7 24.4C179.7 23.8 179.9 23.2 180.2 22.6C180.5 22 181 21.4 181.6 20.9C182.2 20.3 182.9 19.7 183.8 19.2C184.7 18.6 185.7 18.1 186.8 17.5C186.9 17.2 187.1 16.9 187.2 16.6C187.2 16.3 187.3 16 187.4 15.8L186.2 16.4C185.8 16.6 185.4 16.6 185.1 16.6C184.8 16.6 184.6 16.6 184.3 16.5C184 16.4 183.8 16.3 183.6 16.1C183.4 15.9 183.2 15.7 183.1 15.4C183 15.1 182.9 14.7 182.9 14.3C182.9 13.8 183 13.3 183.2 12.8C183.229 12.7285 183.257 12.657 183.286 12.5858C183.258 12.6438 183.229 12.7136 183.2 12.8C183 13.1 182.9 13.3 182.6 13.7C182.4 14 182.1 14.3999 181.9 14.7C181.6 15.0999 181.3 15.3999 181 15.7C180.7 16 180.4 16.2 180 16.3999C179.7 16.5999 179.3 16.7 179 16.7C178.8 16.7 178.6 16.7 178.5 16.5999C178.3 16.4999 178.2 16.4999 178.1 16.2999C178 16.1999 177.9 16.0999 177.8 15.8999C177.7 15.7 177.7 15.5999 177.7 15.3999C177.7 15.0999 177.8 14.7999 177.9 14.5C178 14.2 178.2 13.8 178.4 13.5C178.6 13.2 178.8 12.8 179 12.5C179.2 12.2 179.4 11.8 179.6 11.5C179.8 11.2 179.9 10.8999 180.1 10.6C180.2 10.3 180.3 10.1 180.3 9.89996C180.3 9.69997 180.2 9.49997 180.1 9.29996C180 9.19995 179.8 9.09996 179.6 9.09996C179.4 9.09996 179.1 9.19997 178.8 9.39996C178.5 9.59996 178.2 9.89996 177.8 10.2C177.4 10.6 177 11 176.6 11.5C176.2 12 175.7 12.6 175.2 13.3C174.9 13.7 174.6 14.1 174.3 14.4C174.2 14.6 174.1 14.7 173.9 14.9C173.8 15.1 173.7 15.2 173.5 15.4C173.4 15.6 173.3 15.7 173.2 15.9C173.1 16 173 16.2 172.9 16.3L172 15.9L173.3 14.2C173.5 14 173.7 13.7 173.8 13.4C174 13.1 174.2 12.8 174.3 12.5C174.5 12.2 174.7 11.9 174.8 11.6C175 11.3 175.1 11 175.3 10.7C175.5 10.3 175.6 9.89999 175.7 9.59999C175.8 9.29999 175.8 9.09999 175.8 8.89999C175.8 8.7 175.8 8.59999 175.7 8.5C175.6 8.39999 175.5 8.39999 175.4 8.39999C175.3 8.39999 175.1 8.5 174.9 8.59999C174.7 8.69998 174.5 8.89999 174.4 9.09999C174.2 9.29999 174 9.59999 173.8 9.79999C173.6 10.1 173.4 10.3 173.3 10.6C173.1 10.9 173 11.1 172.8 11.4C172.6 11.6 172.5 11.8 172.4 12L172 11.7C172.4 11.1 172.7 10.6 173 10.1C173.3 9.59999 173.6 9.2 173.9 8.89999C174.2 8.59999 174.4 8.29999 174.7 8.09999C175 7.89999 175.2 7.79999 175.5 7.79999C175.7 7.79999 175.8 7.79999 176 7.89999C176.1 8 176.3 8.09999 176.4 8.2C176.5 8.3 176.6 8.5 176.7 8.59999C176.8 8.79999 176.8 8.99998 176.8 9.2C176.8 9.39999 176.8 9.59999 176.7 9.8C177 9.5 177.3 9.2 177.6 9C177.9 8.8 178.1 8.60001 178.4 8.5L179 8.2C179.2 8.2 179.4 8.09999 179.5 8.09999C179.6 8.09999 179.8 8.09999 180 8.2C180.2 8.3 180.3 8.3 180.5 8.5C180.7 8.60001 180.8 8.8 180.9 9.10001C181.2 9.90001 181.2 10.2 181.2 10.6ZM19 13.1C19.2 13.6 19.3 14 19.4 14.3C19.1 14.2 18.7 14.1 18.3 14.1C17.8 13.9 17.3 13.8 16.8 13.6C16.3 13.4 15.7 13.2 15.2 13C14.6 12.7 14.1 12.5 13.6 12.2C14.1 11.5 14.7 10.8 15.2 10.2C15.7 9.49997 16.2 8.99997 16.7 8.39996C17 8.89996 17.3 9.49997 17.6 9.99997C17.9 10.5 18.2 11.1 18.4 11.6L19 13.1ZM320.5 14.3C320.4 14 320.3 13.6 320.1 13.1L319.5 11.6C319.3 11.1 319 10.5 318.7 9.99997C318.4 9.49997 318.1 8.89996 317.8 8.39996C317.3 8.99997 316.8 9.49997 316.3 10.2C315.8 10.8 315.2 11.5 314.6 12.2C315.1 12.5 315.6 12.7 316.2 13C316.8 13.2 317.3 13.4 317.8 13.6C318.3 13.8 318.8 13.9 319.3 14.1C319.7 14.1 320.1 14.2 320.5 14.3ZM126.4 11.3L126.4 10.6C126.4 10.554 126.405 10.5027 126.411 10.4472C126.43 10.2619 126.454 10.031 126.3 9.79999C126.3 9.59999 126.4 9.49998 126.5 9.29999C126.6 9.09999 126.7 9 126.8 8.89999C126.9 8.79999 127.1 8.79999 127.2 8.79999C127.3 8.79999 127.4 8.79999 127.5 8.89999C127.6 9 127.6 9.09999 127.7 9.2C127.7 9.39999 127.8 9.5 127.8 9.7C127.9 9.90001 127.9 10.1 127.9 10.3L127.9 10.8C127.9 11 127.9 11.3 127.8 11.5C127.8 11.8 127.7 12 127.6 12.3C127.5 12.6 127.4 12.8 127.3 13.1C127.2 13 127 12.8 126.9 12.6L126.6 12C126.5 11.8 126.4 11.5 126.4 11.3ZM288.1 13.3C288.6 13.3 289 13.2 289.4 13C289.8 12.8 290.2 12.7 290.6 12.5C291 12.3 291.3 12 291.5 11.8C291.8 11.5 292 11.3 292.2 11C292.4 10.7 292.5 10.5 292.6 10.2C292.7 9.99998 292.7 9.69998 292.7 9.49998C292.7 9.29999 292.7 9.19998 292.6 8.99998C292.5 8.89998 292.4 8.79999 292.2 8.79999C291.9 8.79999 291.5 8.89999 291.1 9.09999C290.7 9.29999 290.3 9.59999 289.9 9.99998C289.5 10.4 289.1 10.9 288.8 11.4C288.6 12.1 288.3 12.7 288.1 13.3ZM361 13C360.6 13.2 360.2 13.3 359.7 13.3C359.9 12.7 360.2 12.1 360.3 11.4C360.6 10.9 361 10.4 361.4 9.99998C361.8 9.59999 362.2 9.29999 362.6 9.09999C363 8.89999 363.4 8.79999 363.7 8.79999C363.9 8.79999 364 8.89998 364.1 8.99998C364.2 9.19998 364.3 9.29999 364.3 9.49998C364.3 9.69998 364.3 9.99998 364.2 10.2C364.1 10.5 364 10.7 363.8 11C363.6 11.3 363.4 11.5 363.1 11.8C362.9 12 362.6 12.3 362.2 12.5C361.8 12.7 361.4 12.8 361 13ZM270.1 10.3L270.1 10.7C269.767 10.7 269.433 10.5 269.433 10.3C269.211 10.1 269.1 9.90001 269.1 9.60001L269.1 9.3C269.1 9.20001 269.1 9.10001 269.211 9.10001C269.322 9 269.322 9 269.433 9L269.544 9C269.767 9 269.878 9.2 269.989 9.39999C270.1 9.59999 270.1 9.89999 270.1 10.3ZM187.9 14.6C188.1 14.2 188.3 13.9 188.5 13.5C188.7 13.1 188.9 12.8 189.1 12.4C189.3 12 189.5 11.7 189.8 11.3C190 10.9 190.3 10.5 190.6 10.1C190.6 9.99995 190.5 9.89996 190.5 9.79996C190.4 9.69995 190.4 9.59996 190.3 9.49995C190.2 9.39995 190.1 9.29996 189.9 9.29996C189.7 9.19995 189.6 9.19995 189.3 9.19995C189.1 9.19995 188.8 9.19995 188.5 9.29996C188.2 9.39996 187.9 9.49995 187.5 9.59996C187.2 9.79996 186.8 9.99995 186.5 10.2C186.1 10.5 185.8 10.8 185.5 11.2C185 11.8 184.6 12.4 184.4 12.9C184.1 13.5 184 14 184 14.5C184 15 184.1 15.3 184.4 15.6C184.6 15.8 185 15.9 185.4 15.9C185.8 15.9 186.3 15.8 186.8 15.5C187 15.4 187.5 15.1 187.9 14.6ZM40.6 13.1C40.7 12.9 40.8 12.8 40.9 12.5C41 12.3 41.2 12 41.3 11.8C41.5 11.6 41.6 11.3 41.7 11.1C41.8 10.9 42 10.7 42.1 10.5L42.1 10.2C42.1 10.1 42 9.89999 42 9.8C41.9 9.7 41.8 9.5 41.6 9.40001C41.4 9.3 41.2 9.20001 40.9 9.20001C40.7 9.20001 40.4 9.20001 40.2 9.30002L39.3 9.60002C39 9.80002 38.7 10 38.3 10.2C38 10.5 37.6 10.8 37.3 11.2C36.8 11.8 36.4 12.4 36.2 13C35.9 13.6 35.8 14.1 35.8 14.6C35.8 15 35.9 15.3 36.1 15.5C36.3 15.7 36.5 15.8 36.9 15.8C37.3 15.8 37.7 15.7 38 15.5C38.3 15.3 38.7 15.1 39 14.8C39.3 14.5 39.6 14.2 39.8 13.9C40.1 13.8 40.3 13.4 40.6 13.1ZM244 12.5C243.9 12.8 243.8 12.9 243.7 13.1C243.5 13.4 243.2 13.8 243 13.9L242.1 14.8C241.8 15.1 241.4 15.3 241.1 15.5C240.8 15.7 240.4 15.8 240 15.8C239.6 15.8 239.4 15.7 239.2 15.5C239 15.3 238.9 15 238.9 14.6C238.9 14.1 239 13.6 239.3 13C239.5 12.4 239.9 11.8 240.4 11.2C240.7 10.8 241.1 10.5 241.4 10.2C241.8 10 242.1 9.80002 242.4 9.60002L243.3 9.30002C243.5 9.20001 243.8 9.20001 244 9.20001C244.3 9.20001 244.5 9.3 244.7 9.40001C244.9 9.5 245 9.7 245.1 9.8C245.1 9.89999 245.2 10.1 245.2 10.2L245.2 10.5C245.1 10.7 244.9 10.9 244.8 11.1C244.7 11.3 244.6 11.6 244.4 11.8C244.3 12 244.1 12.3 244 12.5ZM259.3 13.1C259.4 12.9 259.5 12.8 259.6 12.5C259.7 12.3 259.9 12 260 11.8C260.1 11.6 260.3 11.3 260.4 11.1C260.5 10.9 260.7 10.7 260.8 10.5L260.8 10.2C260.8 10.1 260.7 9.89999 260.7 9.8C260.6 9.7 260.5 9.5 260.3 9.40001C260.1 9.3 259.9 9.20001 259.6 9.20001C259.4 9.20001 259.1 9.20001 258.9 9.30002L258 9.60002C257.7 9.80002 257.4 10 257 10.2C256.7 10.5 256.3 10.8 256 11.2C255.5 11.8 255.1 12.4 254.9 13C254.6 13.6 254.5 14.1 254.5 14.6C254.5 15 254.6 15.3 254.8 15.5C255 15.7 255.3 15.8 255.6 15.8C256 15.8 256.4 15.7 256.7 15.5C257 15.3 257.4 15.1 257.7 14.8L258.6 13.9C258.8 13.8 259.1 13.4 259.3 13.1ZM277 12.5C276.9 12.8 276.8 12.9 276.7 13.1C276.5 13.4 276.2 13.8 276 13.9L275.1 14.8C274.8 15.1 274.4 15.3 274.1 15.5C273.8 15.7 273.4 15.8 273 15.8C272.6 15.8 272.4 15.7 272.2 15.5C272 15.3 271.9 15 271.9 14.6C271.9 14.1 272 13.6 272.3 13C272.5 12.4 272.9 11.8 273.4 11.2C273.7 10.8 274.1 10.5 274.4 10.2C274.8 10 275.1 9.80002 275.4 9.60002L276.3 9.30002C276.5 9.20001 276.8 9.20001 277 9.20001C277.3 9.20001 277.5 9.3 277.7 9.40001C277.9 9.5 278 9.7 278.1 9.8C278.1 9.89999 278.2 10.1 278.2 10.2L278.2 10.5C278.1 10.7 277.9 10.9 277.8 11.1C277.7 11.3 277.6 11.6 277.4 11.8C277.3 12 277.1 12.3 277 12.5ZM222.1 17C221.6 17.1 221.1 17.2 220.5 17.2C220 17.2 219.7 17.1 219.6 17C219.4 16.9 219.3 16.8 219.3 16.6C219.3 16.4 219.4 16.2 219.7 16.1C219.9 16 220.3 15.9 220.9 15.9C221.3 15.9 221.7 15.9 222.1 16C222.5 16.1 222.9 16.2 223.4 16.3C223 16.6 222.6 16.8 222.1 17ZM182 25.1C181.8 25.3 181.5 25.4 181.2 25.4C180.9 25.3999 180.6 25.3 180.5 25C180.4 24.8 180.3 24.6 180.3 24.3C180.3 24.1 180.4 23.7 180.6 23.3C180.8 22.8 181.1 22.4 181.6 21.8C182.1 21.3 182.7 20.7 183.5 20.1C184.2 19.5 185.1 19 186.2 18.4C186 18.9 185.8 19.5 185.5 20C185.3 20.6 185 21.1 184.7 21.6C184.4 22.2 184.1 22.6 183.8 23.1C183.5 23.6 183.2 24 182.9 24.3C182.6 24.6 182.3 24.9 182 25.1ZM53.4999 18.5C52.6999 19 51.8999 19.5 51.1999 20.1C50.4999 20.7 49.8999 21.2 49.3999 21.8C48.8999 22.4 48.4999 22.9 48.1999 23.4C47.8999 23.9 47.7999 24.3 47.7999 24.7C47.7999 24.9 47.8999 25.1 47.9999 25.2C48.0999 25.3 48.2999 25.4 48.4999 25.4C48.7999 25.4 49.0999 25.3 49.3999 25.1C49.6999 24.9 49.9999 24.7 50.2999 24.3C50.5999 24 50.8999 23.6 51.1999 23.1C51.4999 22.7 51.7999 22.2 52.0999 21.7C52.3999 21.2 52.6999 20.7 52.8999 20.1C52.9999 19.6 53.1999 19 53.4999 18.5Z" transform="translate(117.0001 285.0001)" id="Shape" fill="#FFFFFF" fill-rule="evenodd" stroke="none" />
    </g>
  </g>
</svg>