<?xml version="1.0" encoding="utf-8"?>
<svg width="1920px" height="1080px" viewBox="0 0 1920 1080" version="1.1" xmlns:xlink="http://www.w3.org/1999/xlink" xmlns="http://www.w3.org/2000/svg">
  <desc>Created with Lunacy</desc>
  <defs>
    <rect width="1920" height="1080" id="artboard_1" />
    <clipPath id="clip_1">
      <use xlink:href="#artboard_1" clip-rule="evenodd" />
    </clipPath>
  </defs>
  <g id="Full-HD" clip-path="url(#clip_1)">
    <use xlink:href="#artboard_1" stroke="none" fill="#012DD0" />
    <g id="Group" transform="translate(592 255.5039)">
      <path d="M729.956 282.382C727.533 285.925 725.716 290.059 723.292 293.012C717.841 301.279 712.994 309.547 706.937 317.814C698.456 329.034 689.37 342.617 675.437 347.932C686.341 342.026 694.821 327.263 702.091 317.814C728.138 283.563 737.225 236.91 732.985 194.392C731.773 177.857 727.533 160.14 720.869 144.786C717.841 202.659 699.062 264.666 650.6 302.46C642.725 308.366 634.245 313.68 625.764 317.814C654.235 300.689 671.802 273.524 681.494 256.989C695.427 223.328 705.119 188.486 701.485 150.692C697.244 110.535 662.11 55.0246 642.12 50.3003C662.11 79.8272 670.591 116.441 668.773 149.511C660.898 195.573 652.418 263.485 594.87 294.193C645.754 256.989 656.052 179.628 656.052 144.196C656.052 144.196 656.052 144.786 656.052 144.786C656.052 138.881 655.447 97.5433 631.822 60.3394C613.649 31.9936 581.543 17.2301 550.043 7.78148C566.399 21.9544 577.909 38.4895 593.053 59.7489C603.956 78.0556 631.216 132.976 611.226 215.651C600.322 261.713 576.091 286.516 547.62 298.326C576.091 280.61 597.899 250.493 603.956 214.47C608.197 187.305 611.831 136.519 597.899 98.1339C591.235 79.2366 579.726 65.0637 571.851 53.8435C568.216 48.5286 562.764 44.9854 558.524 40.2611C542.168 24.3165 521.572 14.2774 499.765 7.78147C491.89 5.41932 487.044 2.46663 476.14 0.695011C467.053 -1.0766 457.361 0.695011 465.236 4.23824C467.659 5.41932 473.111 9.55309 475.534 11.3247C517.332 45.5759 543.986 90.4568 554.889 141.243C560.341 166.046 564.582 186.715 562.159 209.746C558.524 240.454 556.707 278.839 500.976 302.46C496.736 304.232 493.101 305.413 488.861 306.594C488.255 306.594 487.649 306.594 487.649 306.594C484.621 307.184 481.592 307.184 478.563 307.184C474.928 307.184 471.294 306.594 467.053 306.003C466.448 305.413 465.236 304.822 464.63 304.232C442.823 290.649 432.525 273.524 432.525 248.721C437.371 253.445 442.217 258.76 444.034 265.256C440.4 242.816 433.736 218.604 414.957 203.84C429.496 203.84 444.034 202.659 458.573 201.478C438.582 195.573 421.015 184.943 402.236 176.675C419.198 173.723 436.159 170.18 451.303 161.912C431.919 160.731 411.323 160.14 392.544 155.416C386.486 154.235 376.188 151.873 371.948 146.558C371.342 145.967 370.131 145.377 368.919 144.786C378.006 134.157 385.881 119.393 371.342 109.945C373.765 131.795 362.256 136.519 342.266 135.338C316.218 133.566 284.718 130.613 261.093 143.605C255.641 146.558 247.16 151.282 245.949 157.778C226.564 165.455 206.574 174.313 199.911 195.573C200.516 196.754 245.949 196.163 268.968 196.754C286.535 197.344 305.92 197.344 322.881 204.431C362.862 220.966 345.294 271.162 327.121 297.145C325.91 298.917 324.698 300.689 323.487 301.87C323.487 301.87 322.881 301.87 322.881 301.87C320.458 303.641 318.035 305.413 315.006 306.594C267.151 312.499 228.987 301.87 195.67 254.627C190.218 246.95 185.372 238.682 182.343 230.414C179.92 222.737 176.286 212.108 174.468 195.573C173.257 186.124 174.468 157.778 176.286 148.33C181.738 119.393 205.362 54.434 261.093 13.6868C264.122 11.3247 276.843 4.82876 276.843 1.28553C271.391 -0.486082 265.939 -0.486082 252.612 3.05715C244.737 5.4193 236.257 7.19092 228.382 10.1436C199.305 20.1828 178.709 39.08 156.295 68.6069C137.517 102.268 107.228 164.865 152.661 252.264C169.622 284.153 192.641 303.641 216.872 313.68C188.401 306.003 160.536 287.106 141.757 251.083C96.3245 163.684 134.488 80.4177 133.882 81.5988C133.882 81.0082 144.18 59.7488 150.843 47.9381C153.872 40.2611 159.324 32.5841 164.776 27.2692C169.622 21.9544 184.161 11.3247 189.007 5.41932C155.084 13.0963 122.372 33.7652 103.594 63.8826C75.1227 108.764 81.1803 161.912 81.1803 161.321C79.9688 180.219 82.9976 228.643 124.19 288.287C135.699 304.822 150.843 318.995 167.805 329.625C148.42 320.767 131.459 307.775 118.132 289.468C76.3342 232.186 75.1227 176.675 73.3053 153.054C73.3053 134.747 75.1227 121.165 76.9399 102.858C79.363 85.142 85.4207 67.4259 90.8726 47.9381C64.2188 81.0082 41.1998 112.307 36.9594 154.235C32.719 195.573 43.6228 232.186 63.0073 268.209C62.4016 267.618 61.7958 267.028 61.19 265.847C69.6708 281.201 87.238 314.271 119.344 337.302C98.1417 326.082 78.7572 310.137 65.4304 290.649C39.3824 253.445 32.1132 218.013 26.6613 189.077C25.4498 181.99 22.421 143.605 21.2094 136.519C9.09409 167.227 0.00760258 199.116 4.85373 232.186C9.09409 259.941 17.5748 288.878 33.9305 311.909C43.017 324.901 54.5266 336.121 65.4303 347.341C47.8631 337.892 33.9305 323.72 23.0267 307.775C13.9402 294.193 9.09407 278.839 0.00757947 265.256C-0.598108 323.72 35.1421 387.498 89.661 412.3C107.834 420.568 127.219 426.473 145.997 432.969C117.526 432.969 91.4784 430.016 69.6708 410.529C70.8823 428.245 86.6323 437.693 101.171 446.552C115.709 456 132.065 461.906 149.026 465.449C169.016 470.173 190.218 471.354 210.814 471.945C230.805 472.535 251.401 470.173 270.785 474.307C290.17 478.441 306.525 490.251 317.429 506.196C307.131 525.093 296.833 543.99 293.804 565.84C291.381 583.556 293.198 601.863 295.016 619.579C296.227 632.571 298.045 644.972 299.256 657.964C315.612 638.477 317.429 610.131 320.458 586.509C323.487 597.139 320.458 610.721 319.852 621.351C319.852 637.886 321.064 653.831 324.092 669.775C330.15 703.436 345.294 735.325 349.535 768.985C350.746 779.025 351.352 789.064 350.14 799.103C349.535 807.37 345.294 816.819 348.323 824.496C365.89 799.694 373.765 778.434 371.342 747.726C368.919 717.018 362.256 687.491 356.804 657.374C353.775 640.839 354.381 624.304 356.198 607.769C354.381 649.106 370.736 689.853 387.092 727.648C391.332 700.483 400.419 675.09 405.871 648.516C411.929 620.76 411.323 595.958 402.236 568.793C414.957 577.651 419.804 593.596 422.227 608.359C437.371 583.556 431.919 564.659 424.65 538.085C417.38 512.101 419.803 487.889 448.88 477.85C474.928 468.992 504.005 472.535 530.659 472.535C559.735 472.535 590.024 469.582 617.889 459.543C643.331 450.095 659.687 432.969 672.408 409.938C642.725 427.064 615.466 439.465 580.937 432.379C613.043 425.883 644.543 418.206 671.196 398.718C697.244 379.23 718.446 351.475 729.35 321.357C734.802 306.003 736.619 290.059 737.831 274.114C734.802 275.886 732.379 278.839 729.956 282.382L729.956 282.382Z" id="Shape" fill="#000000" stroke="none" />
    </g>
  </g>
</svg>