<?xml version="1.0" encoding="utf-8"?>
<!-- Generator: Adobe Illustrator 23.0.0, SVG Export Plug-In . SVG Version: 6.00 Build 0)  -->
<svg version="1.1" id="Layer_1" xmlns="http://www.w3.org/2000/svg" xmlns:xlink="http://www.w3.org/1999/xlink" x="0px" y="0px"
	 viewBox="0 0 269.1 162.3" style="enable-background:new 0 0 269.1 162.3;" xml:space="preserve">
<style type="text/css">
	.st0{fill:#333132;}
	.st1{fill:#1E1E1E;}
	.st2{fill:none;}
	.st3{fill:#FFFFFF;}
	.st4{font-family:'Lato-Regular';}
	.st5{font-size:5.41px;}
	.st6{font-size:5.73px;}
	.st7{font-family:'Lato-Bold';}
	.st8{font-size:5.3px;}
	.st9{font-family:'Roboto-Bold';}
	.st10{font-size:5.69px;}
	.st11{font-family:'Gadugi';}
	.st12{font-size:19px;}
	.st13{font-family:'Gadugi-Bold';}
	.st14{font-size:7px;}
	.st15{font-size:5.55px;}
</style>
<title>Asset 3</title>
<g>
	<rect x="6.5" y="4.7" width="258.4" height="154.1"/>
	<rect x="6.4" y="105.3" class="st0" width="259.8" height="35.7"/>
	<g id="Bottom">
		<rect x="4.7" y="142.6" class="st0" width="259.6" height="0.7"/>
	</g>
	<path class="st1" d="M270.1,0.3v162H1c0-0.6,0-1.1,0-1.7V0.3L270.1,0.3L270.1,0.3z M6.5,158.7h258.4V4.7H6.5V158.7z"/>
	<path class="st2" d="M6.5,156.2V19.6h258.4v136.6H6.5z"/>
	<g id="Top">
		<rect x="6.4" y="123.9" class="st0" width="259.8" height="0.6"/>
	</g>
	<text transform="matrix(1.03 0 0 1 186.3901 136.4697)" class="st3 st4 st5">JSNCHASE@OUT</text>
	<text transform="matrix(1.03 0 0 1 230.4019 136.4697)" class="st3 st4 st5">L</text>
	<text transform="matrix(1.03 0 0 1 233.0493 136.4697)" class="st3 st4 st5">OOK</text>
	<text transform="matrix(1.03 0 0 1 245.7285 136.4697)" class="st3 st4 st5">.</text>
	<text transform="matrix(1.03 0 0 1 246.7583 136.4697)" class="st3 st4 st5">COM</text>
	<text id="_000_-_1234_-_5678_000_-_9876_-_5432" transform="matrix(0.97 0 0 1 114.29 136.4697)" class="st3 st4 st6">+ 315-447-3352</text>
	<text transform="matrix(0.97 0 0 1 23.54 138.4102)" class="st3 st4 st6">V</text>
	<text transform="matrix(0.97 0 0 1 26.9443 138.4102)" class="st3 st4 st6">ANCOUVER </text>
	<text transform="matrix(0.97 0 0 1 58.8672 138.4102)" class="st3 st4 st6">W</text>
	<text transform="matrix(0.97 0 0 1 64.27 138.4102)" class="st3 st4 st6">A</text>
	<text transform="matrix(1.07 0 0 1 122.2861 90.1205)" class="st3 st7 st8">RISE...</text>
	<text transform="matrix(0.97 0 0 1 228.79 14.2545)" class="st3 st9 st10">Data </text>
	<text transform="matrix(0.97 0 0 1 241.4873 14.2545)" class="st3 st9 st10">A</text>
	<text transform="matrix(0.97 0 0 1 245.1147 14.2545)" class="st3 st9 st10">nalyst</text>
	<text transform="matrix(0.97 0 0 1 153.5936 14.2545)" class="st3 st4 st6">J</text>
	<text transform="matrix(0.97 0 0 1 155.9681 14.2545)" class="st3 st4 st6">ASON ALEXANDER CHASE  |</text>
	<g id="Name_rectangle_tab-3">
		<rect x="8.1" y="106.4" width="0.5" height="1.3"/>
	</g>
	<g id="Name_rectangle_tab-4">
		<rect x="8.1" y="3.6" width="0.5" height="1.1"/>
	</g>
	<g id="Name_rectangle_tab-5">
		<rect x="263.4" y="3.6" width="0.4" height="1.1"/>
	</g>
	<text transform="matrix(0.97 0 0 1 248.21 47.6099)" class="st11 st12">ᙾ</text>
	<text transform="matrix(0.97 0 0 1 248.21 61.3198)" class="st11 st12">ᙾ</text>
	<text transform="matrix(0.97 0 0 1 248.21 75.0303)" class="st11 st12">ᙾ</text>
	<text transform="matrix(0.97 0 0 1 248.21 102.4399)" class="st11 st12">ᙾ</text>
	<text transform="matrix(0.97 0 0 1 248.21 88.73)" class="st11 st12">ᙾ</text>
	<text transform="matrix(0.97 0 0 1 167.1899 40.1499)" class="st13 st14">TECHNICAL SOLUTIONS</text>
	<text transform="matrix(0.97 0 0 1 150.7197 53.77)" class="st13 st14">EXTRACT TRANSFORM LOAD</text>
	<text transform="matrix(0.97 0 0 1 141.2197 67.3799)" class="st13 st14">SYSTEM ANALYSIS AND DESIGN</text>
	<text transform="matrix(0.97 0 0 1 207.8896 81)" class="st13 st14">DATA SME</text>
	<text transform="matrix(0.97 0 0 1 210.5298 94.6201)" class="st13 st14">BIG DATA</text>
	<text transform="matrix(1 0 0 1 90.4097 154.4297)" class="st3 st4 st15">D</text>
	<text transform="matrix(1 0 0 1 94.4797 154.4297)" class="st3 st4 st15">AT</text>
	<text transform="matrix(1 0 0 1 100.7997 154.4297)" class="st3 st4 st15">ADRIVENSOLUTIONSN</text>
	<text transform="matrix(1 0 0 1 160.2797 154.4297)" class="st3 st4 st15">W</text>
	<text transform="matrix(1 0 0 1 165.5997 154.4297)" class="st3 st4 st15">.</text>
	<text transform="matrix(1 0 0 1 166.6197 154.4297)" class="st3 st4 st15">COM</text>
	<g id="Top-5">
		<rect x="5.5" y="106.7" class="st3" width="260.3" height="0.6"/>
	</g>
	<path class="st3" d="M67.8,81.3c1.5-3.8,4.4-6.2,7.8-7.9c5.4-2.7,11.3-3.5,17.1-3.5c6.5,0,12.9,0.5,19.4,0.9
		c8.8,0.6,17.6,1.3,26.4,0.5c-9.8-0.5-18.2-5.1-26.9-8.7c-3.2-1.3-6.4-2.2-9.8-2.9c-4.3-0.9-8.3,0.3-12,2.8
		c-0.4,0.3-0.9,0.5-1.5,0.6c3.1-4.2,7.5-6,12.5-6.3c4.4-0.1,8.8,0.6,13,2.1c3.1,1,6.2,2.1,10,3.4l-3-4.6l0.2-0.3
		c1.5,1,2.9,2.1,4.5,3c2.9,1.8,6,3.3,9.2,4.6c4.9,1.8,9,0,11.3-4.7c0.4-1,0.4-2,0-3c-2.6-7.6-8.2-11.8-15.7-13.6
		c-1.7-0.4-3.4-0.6-5-1c10.5-2.5,19.3,0.8,27,8.4c-0.2-0.5-0.5-1.1-0.8-1.5c-4.4-5.5-10.4-8.6-17-10.5c-6-1.9-12.3-2.3-18.4-1.1
		c2.2-1.5,4-2.1,8.7-2.3c10.3-0.5,20.1,1.5,29,6.8c3.7,2.2,6.8,5,8.2,9.6c3.7-2.9,5.6-6.7,7-11l-5.2-0.9c6-3.1,12.9-4.2,19.6-3.2
		c-0.4,0.5-0.8,0.9-1.3,1.2c-5.1,2.7-9.2,6.9-11.8,12c-1.8,3.3-3.3,6.7-5.1,10c-4,7.9-10.4,12.8-19,15.3c0.3-0.2,0.5-0.5,0.7-0.7
		c0.5-0.3,0.8-0.8,1-1.3c-0.5,0-0.9,0.1-1.4,0.3c-4.3,1.9-8.9,3.1-13.6,3.3c-9,0.5-17.8-0.6-26.7-1.6c-7.1-0.8-14.2-1.7-21.3-1.2
		C78.5,74.7,72.5,76.2,67.8,81.3z"/>
	<g>
		<path class="st3" d="M133.3,126.6c0,0.5,0.4,1,0.9,1h4.9c0.5,0,0.9-0.4,0.9-1v-1.4h-6.7V126.6z M136.6,125.6
			c0.4,0,0.7,0.3,0.7,0.8s-0.3,0.8-0.7,0.8s-0.7-0.3-0.7-0.8C136,125.9,136.3,125.6,136.6,125.6z"/>
		<ellipse class="st3" cx="136.6" cy="126.4" rx="0.4" ry="0.4"/>
		<path class="st3" d="M139.1,114.6h-4.9c-0.5,0-0.9,0.4-0.9,1v0.9h6.7v-0.9C140,115.1,139.6,114.6,139.1,114.6z M137.5,115.7h-1.7
			c-0.1,0-0.2-0.1-0.2-0.2s0.1-0.2,0.2-0.2h1.7c0.1,0,0.2,0.1,0.2,0.2S137.6,115.7,137.5,115.7z"/>
		<path class="st3" d="M133.3,124.9h6.7v-8h-6.7V124.9z"/>
	</g>
	<path class="st3" d="M52.1,130v-9.2c0-0.2,0.1-0.3,0.3-0.3h2.3l-8.5-6.5l-8.5,6.5h2.3c0.2,0,0.3,0.1,0.3,0.3v9.2h3.9v-4.3
		c0-0.2,0.1-0.3,0.3-0.3h3.3c0.2,0,0.3,0.1,0.3,0.3v4.3H52.1z"/>
	<path class="st3" d="M221.5,116.1c0-0.1,0.1-0.2,0.2-0.2h8.3c0.1,0,0.2,0.1,0.3,0.2v4.9l2.8-3.7l-7.2-5l-7.2,5l2.8,3.6V116.1z"/>
	<path class="st3" d="M223.5,123.7l2.2-1.3c0.1,0,0.2,0,0.2,0l2.3,1.3l1.5-2v-5.3H222v5.2L223.5,123.7z M223.4,117.6h2.2
		c0.1,0,0.2,0.1,0.2,0.2c0,0.1-0.1,0.2-0.2,0.2h-2.2c-0.1,0-0.2-0.1-0.2-0.2C223.2,117.7,223.3,117.6,223.4,117.6z M223.4,119h4.9
		c0.1,0,0.2,0.1,0.2,0.2c0,0.1-0.1,0.2-0.2,0.2h-4.9c-0.1,0-0.2-0.1-0.2-0.2C223.2,119.1,223.3,119,223.4,119z M223.4,120.4h4.9
		c0.1,0,0.2,0.1,0.2,0.2s-0.1,0.2-0.2,0.2h-4.9c-0.1,0-0.2-0.1-0.2-0.2S223.3,120.4,223.4,120.4z"/>
	<polygon class="st3" points="219.2,126.7 232.5,126.7 225.9,122.9 	"/>
	<polygon class="st3" points="233.2,126.5 233.2,118 228.7,124 	"/>
	<polygon class="st3" points="218.6,118 218.6,126.5 223.1,123.9 	"/>
</g>
</svg>
